Dinsical-Bold.ufo
<glyph name="numbersign" format="2">
  <advance width="543" />
  <unicode hex="0023" />
  <outline>
    <contour>
      <point x="70" y="0" type="line" />
      <point x="171" y="0" type="line" />
      <point x="198" y="201" type="line" />
      <point x="304" y="201" type="line" />
      <point x="277" y="0" type="line" />
      <point x="380" y="0" type="line" />
      <point x="407" y="201" type="line" />
      <point x="500" y="201" type="line" />
      <point x="500" y="291" type="line" />
      <point x="418" y="291" type="line" />
      <point x="432" y="400" type="line" />
      <point x="526" y="400" type="line" />
      <point x="526" y="491" type="line" />
      <point x="444" y="491" type="line" />
      <point x="468" y="680" type="line" />
      <point x="367" y="680" type="line" />
      <point x="342" y="491" type="line" />
      <point x="237" y="491" type="line" />
      <point x="261" y="680" type="line" />
      <point x="160" y="680" type="line" />
      <point x="135" y="491" type="line" />
      <point x="43" y="491" type="line" />
      <point x="43" y="400" type="line" />
      <point x="123" y="400" type="line" />
      <point x="108" y="291" type="line" />
      <point x="17" y="291" type="line" />
      <point x="17" y="201" type="line" />
      <point x="96" y="201" type="line" />
    </contour>
    <contour>
      <point x="210" y="291" type="line" />
      <point x="224" y="400" type="line" />
      <point x="331" y="400" type="line" />
      <point x="316" y="291" type="line" />
    </contour>
  </outline>
</glyph>
<glyph name="dollar" format="2">
  <advance width="501" />
  <unicode hex="0024" />
  <outline>
    <contour>
      <point x="196" y="-59" type="line" />
      <point x="295" y="-59" type="line" />
      <point x="295" y="34" type="line" />
      <point x="396" y="51" />
      <point x="455" y="114" />
      <point x="455" y="220" type="curve" smooth="yes" />
      <point x="455" y="318" />
      <point x="391" y="387" />
      <point x="289" y="399" type="curve" smooth="yes" />
      <point x="198" y="409" />
      <point x="162" y="435" />
      <point x="162" y="479" type="curve" smooth="yes" />
      <point x="162" y="527" />
      <point x="191" y="552" />
      <point x="242" y="552" type="curve" smooth="yes" />
      <point x="298" y="552" />
      <point x="324" y="527" />
      <point x="330" y="471" type="curve" />
      <point x="446" y="471" type="line" />
      <point x="441" y="571" />
      <point x="385" y="633" />
      <point x="295" y="651" type="curve" />
      <point x="295" y="729" type="line" />
      <point x="196" y="729" type="line" />
      <point x="196" y="651" type="line" />
      <point x="101" y="633" />
      <point x="43" y="568" />
      <point x="43" y="469" type="curve" smooth="yes" />
      <point x="43" y="371" />
      <point x="98" y="319" />
      <point x="209" y="297" type="curve" smooth="yes" />
      <point x="316" y="277" />
      <point x="335" y="257" />
      <point x="335" y="211" type="curve" smooth="yes" />
      <point x="335" y="160" />
      <point x="305" y="134" />
      <point x="245" y="134" type="curve" smooth="yes" />
      <point x="180" y="134" />
      <point x="149" y="158" />
      <point x="141" y="223" type="curve" />
      <point x="29" y="223" type="line" />
      <point x="35" y="113" />
      <point x="95" y="46" />
      <point x="196" y="32" type="curve" />
    </contour>
  </outline>
</glyph>
<glyph name="ampersand" format="2">
  <advance width="602" />
  <unicode hex="0026" />
  <anchor x="442" y="13" name="new anchor" />
  <outline>
    <contour>
      <point x="230" y="-12" type="curve" smooth="yes" />
      <point x="297" y="-12" />
      <point x="350" y="11" />
      <point x="400" y="66" type="curve" />
      <point x="444" y="7" />
      <point x="469" y="0" />
      <point x="509" y="0" type="curve" smooth="yes" />
      <point x="557" y="0" type="line" />
      <point x="557" y="106" type="line" />
      <point x="536" y="106" type="line" smooth="yes" />
      <point x="519" y="106" />
      <point x="505" y="114" />
      <point x="491" y="132" type="curve" smooth="yes" />
      <point x="473" y="155" type="line" />
      <point x="558" y="259" type="line" />
      <point x="481" y="327" type="line" />
      <point x="410" y="240" type="line" />
      <point x="319" y="357" type="line" />
      <point x="405" y="424" />
      <point x="435" y="471" />
      <point x="435" y="533" type="curve" smooth="yes" />
      <point x="435" y="622" />
      <point x="364" y="692" />
      <point x="265" y="692" type="curve" smooth="yes" />
      <point x="167" y="692" />
      <point x="96" y="623" />
      <point x="96" y="532" type="curve" smooth="yes" />
      <point x="96" y="484" />
      <point x="114" y="448" />
      <point x="167" y="375" type="curve" />
      <point x="79" y="305" />
      <point x="44" y="246" />
      <point x="44" y="170" type="curve" smooth="yes" />
      <point x="44" y="62" />
      <point x="114" y="-12" />
    </contour>
    <contour>
      <point x="161" y="178" type="curve" smooth="yes" />
      <point x="161" y="215" />
      <point x="180" y="245" />
      <point x="232" y="290" type="curve" />
      <point x="337" y="150" type="line" />
      <point x="299" y="107" />
      <point x="273" y="93" />
      <point x="240" y="93" type="curve" smooth="yes" />
      <point x="190" y="93" />
      <point x="161" y="125" />
    </contour>
    <contour>
      <point x="257" y="441" type="curve" />
      <point x="218" y="492" />
      <point x="210" y="512" />
      <point x="210" y="537" type="curve" smooth="yes" />
      <point x="210" y="573" />
      <point x="233" y="597" />
      <point x="266" y="597" type="curve" smooth="yes" />
      <point x="300" y="597" />
      <point x="323" y="572" />
      <point x="323" y="537" type="curve" smooth="yes" />
      <point x="323" y="505" />
      <point x="308" y="481" />
    </contour>
  </outline>
</glyph>
<glyph name="quotesingle" format="2">
  <advance width="189" />
  <unicode hex="0027" />
  <outline>
    <contour>
      <point x="38" y="386" type="line" />
      <point x="153" y="386" type="line" />
      <point x="153" y="680" type="line" />
      <point x="38" y="680" type="line" />
    </contour>
  </outline>
</glyph>
<glyph name="plus" format="2">
  <advance width="520" />
  <unicode hex="002B" />
  <outline>
    <contour>
      <point x="205" y="58" type="line" />
      <point x="317" y="58" type="line" />
      <point x="317" y="215" type="line" />
      <point x="474" y="215" type="line" />
      <point x="474" y="328" type="line" />
      <point x="317" y="328" type="line" />
      <point x="317" y="486" type="line" />
      <point x="205" y="486" type="line" />
      <point x="205" y="328" type="line" />
      <point x="47" y="328" type="line" />
      <point x="47" y="215" type="line" />
      <point x="205" y="215" type="line" />
    </contour>
  </outline>
</glyph>
<glyph name="hyphen" format="2">
  <advance width="362" />
  <unicode hex="002D" />
  <outline>
    <contour>
      <point x="42" y="284" type="line" />
      <point x="320" y="284" type="line" />
      <point x="320" y="397" type="line" />
      <point x="42" y="397" type="line" />
    </contour>
  </outline>
</glyph>
<glyph name="one" format="2">
  <advance width="348" />
  <unicode hex="0031" />
  <outline>
    <contour>
      <point x="156" y="0" type="line" />
      <point x="285" y="0" type="line" />
      <point x="285" y="680" type="line" />
      <point x="156" y="680" type="line" />
      <point x="36" y="594" type="line" />
      <point x="36" y="455" type="line" />
      <point x="156" y="539" type="line" />
    </contour>
  </outline>
</glyph>
<glyph name="two" format="2">
  <advance width="495" />
  <unicode hex="0032" />
  <outline>
    <contour>
      <point x="48" y="0" type="line" />
      <point x="452" y="0" type="line" />
      <point x="452" y="114" type="line" />
      <point x="214" y="114" type="line" />
      <point x="386" y="327" type="line" smooth="yes" />
      <point x="429" y="381" />
      <point x="452" y="429" />
      <point x="452" y="491" type="curve" smooth="yes" />
      <point x="452" y="506" type="line" smooth="yes" />
      <point x="452" y="610" />
      <point x="372" y="691" />
      <point x="249" y="691" type="curve" smooth="yes" />
      <point x="125" y="691" />
      <point x="45" y="615" />
      <point x="45" y="507" type="curve" smooth="yes" />
      <point x="45" y="484" type="line" />
      <point x="170" y="484" type="line" />
      <point x="170" y="499" type="line" smooth="yes" />
      <point x="170" y="551" />
      <point x="198" y="581" />
      <point x="245" y="581" type="curve" smooth="yes" />
      <point x="292" y="581" />
      <point x="321" y="551" />
      <point x="321" y="502" type="curve" smooth="yes" />
      <point x="321" y="490" type="line" smooth="yes" />
      <point x="321" y="458" />
      <point x="309" y="426" />
      <point x="280" y="391" type="curve" smooth="yes" />
      <point x="48" y="102" type="line" />
    </contour>
  </outline>
</glyph>
<glyph name="three" format="2">
  <advance width="506" />
  <unicode hex="0033" />
  <outline>
    <contour>
      <point x="251" y="-11" type="curve" smooth="yes" />
      <point x="371" y="-11" />
      <point x="458" y="65" />
      <point x="458" y="188" type="curve" smooth="yes" />
      <point x="458" y="205" type="line" smooth="yes" />
      <point x="458" y="282" />
      <point x="426" y="337" />
      <point x="365" y="362" type="curve" />
      <point x="418" y="389" />
      <point x="447" y="437" />
      <point x="447" y="497" type="curve" smooth="yes" />
      <point x="447" y="512" type="line" smooth="yes" />
      <point x="447" y="621" />
      <point x="372" y="691" />
      <point x="250" y="691" type="curve" smooth="yes" />
      <point x="125" y="691" />
      <point x="50" y="622" />
      <point x="50" y="507" type="curve" smooth="yes" />
      <point x="50" y="492" type="line" />
      <point x="168" y="492" type="line" />
      <point x="168" y="507" type="line" smooth="yes" />
      <point x="168" y="553" />
      <point x="196" y="581" />
      <point x="245" y="581" type="curve" smooth="yes" />
      <point x="292" y="581" />
      <point x="322" y="551" />
      <point x="322" y="501" type="curve" smooth="yes" />
      <point x="322" y="487" type="line" smooth="yes" />
      <point x="322" y="435" />
      <point x="291" y="405" />
      <point x="239" y="405" type="curve" smooth="yes" />
      <point x="204" y="405" type="line" />
      <point x="204" y="295" type="line" />
      <point x="240" y="295" type="line" smooth="yes" />
      <point x="301" y="295" />
      <point x="333" y="265" />
      <point x="333" y="204" type="curve" smooth="yes" />
      <point x="333" y="188" type="line" smooth="yes" />
      <point x="333" y="133" />
      <point x="301" y="98" />
      <point x="249" y="98" type="curve" smooth="yes" />
      <point x="194" y="98" />
      <point x="165" y="123" />
      <point x="165" y="171" type="curve" smooth="yes" />
      <point x="165" y="186" type="line" />
      <point x="45" y="186" type="line" />
      <point x="45" y="166" type="line" smooth="yes" />
      <point x="45" y="54" />
      <point x="120" y="-11" />
    </contour>
  </outline>
</glyph>
<glyph name="four" format="2">
  <advance width="523" />
  <unicode hex="0034" />
  <outline>
    <contour>
      <point x="305" y="0" type="line" />
      <point x="434" y="0" type="line" />
      <point x="434" y="109" type="line" />
      <point x="491" y="109" type="line" />
      <point x="491" y="221" type="line" />
      <point x="434" y="221" type="line" />
      <point x="434" y="381" type="line" />
      <point x="305" y="381" type="line" />
      <point x="305" y="221" type="line" />
      <point x="164" y="221" type="line" />
      <point x="364" y="680" type="line" />
      <point x="235" y="680" type="line" />
      <point x="36" y="221" type="line" />
      <point x="36" y="109" type="line" />
      <point x="305" y="109" type="line" />
    </contour>
  </outline>
</glyph>
<glyph name="five" format="2">
  <advance width="498" />
  <unicode hex="0035" />
  <outline>
    <contour>
      <point x="247" y="-11" type="curve" smooth="yes" />
      <point x="375" y="-11" />
      <point x="451" y="63" />
      <point x="451" y="190" type="curve" smooth="yes" />
      <point x="451" y="249" type="line" smooth="yes" />
      <point x="451" y="376" />
      <point x="390" y="447" />
      <point x="273" y="447" type="curve" smooth="yes" />
      <point x="233" y="447" />
      <point x="199" y="437" />
      <point x="171" y="415" type="curve" />
      <point x="171" y="569" type="line" />
      <point x="436" y="569" type="line" />
      <point x="436" y="680" type="line" />
      <point x="61" y="680" type="line" />
      <point x="61" y="292" type="line" />
      <point x="172" y="292" type="line" />
      <point x="187" y="323" />
      <point x="212" y="340" />
      <point x="246" y="340" type="curve" smooth="yes" />
      <point x="301" y="340" />
      <point x="326" y="307" />
      <point x="326" y="242" type="curve" smooth="yes" />
      <point x="326" y="195" type="line" smooth="yes" />
      <point x="326" y="133" />
      <point x="300" y="98" />
      <point x="247" y="98" type="curve" smooth="yes" />
      <point x="199" y="98" />
      <point x="169" y="124" />
      <point x="169" y="165" type="curve" smooth="yes" />
      <point x="169" y="171" type="line" />
      <point x="50" y="171" type="line" />
      <point x="50" y="158" type="line" smooth="yes" />
      <point x="50" y="52" />
      <point x="126" y="-11" />
    </contour>
  </outline>
</glyph>
<glyph name="six" format="2">
  <advance width="518" />
  <unicode hex="0036" />
  <outline>
    <contour>
      <point x="260" y="-11" type="curve" smooth="yes" />
      <point x="391" y="-11" />
      <point x="475" y="66" />
      <point x="475" y="195" type="curve" smooth="yes" />
      <point x="475" y="224" type="line" smooth="yes" />
      <point x="475" y="341" />
      <point x="404" y="415" />
      <point x="295" y="415" type="curve" smooth="yes" />
      <point x="275" y="415" />
      <point x="257" y="412" />
      <point x="242" y="404" type="curve" />
      <point x="387" y="680" type="line" />
      <point x="250" y="680" type="line" />
      <point x="90" y="377" type="line" smooth="yes" />
      <point x="61" y="319" />
      <point x="45" y="272" />
      <point x="45" y="219" type="curve" smooth="yes" />
      <point x="45" y="191" type="line" smooth="yes" />
      <point x="45" y="63" />
      <point x="126" y="-11" />
    </contour>
    <contour>
      <point x="175" y="189" type="curve" smooth="yes" />
      <point x="175" y="218" type="line" smooth="yes" />
      <point x="175" y="274" />
      <point x="207" y="307" />
      <point x="260" y="307" type="curve" smooth="yes" />
      <point x="314" y="307" />
      <point x="346" y="274" />
      <point x="346" y="217" type="curve" smooth="yes" />
      <point x="346" y="189" type="line" smooth="yes" />
      <point x="346" y="134" />
      <point x="314" y="98" />
      <point x="260" y="98" type="curve" smooth="yes" />
      <point x="207" y="98" />
      <point x="175" y="133" />
    </contour>
  </outline>
</glyph>
<glyph name="seven" format="2">
  <advance width="459" />
  <unicode hex="0037" />
  <outline>
    <contour>
      <point x="88" y="0" type="line" />
      <point x="217" y="0" type="line" />
      <point x="431" y="568" type="line" />
      <point x="431" y="680" type="line" />
      <point x="31" y="680" type="line" />
      <point x="31" y="568" type="line" />
      <point x="304" y="568" type="line" />
    </contour>
  </outline>
</glyph>
<glyph name="nine" format="2">
  <advance width="518" />
  <unicode hex="0039" />
  <outline>
    <contour>
      <point x="134" y="0" type="line" />
      <point x="270" y="0" type="line" />
      <point x="430" y="302" type="line" smooth="yes" />
      <point x="460" y="360" />
      <point x="475" y="408" />
      <point x="475" y="460" type="curve" smooth="yes" />
      <point x="475" y="489" type="line" smooth="yes" />
      <point x="475" y="616" />
      <point x="394" y="691" />
      <point x="260" y="691" type="curve" smooth="yes" />
      <point x="129" y="691" />
      <point x="45" y="614" />
      <point x="45" y="485" type="curve" smooth="yes" />
      <point x="45" y="455" type="line" smooth="yes" />
      <point x="45" y="338" />
      <point x="116" y="265" />
      <point x="225" y="265" type="curve" smooth="yes" />
      <point x="244" y="265" />
      <point x="264" y="268" />
      <point x="279" y="276" type="curve" />
    </contour>
    <contour>
      <point x="174" y="462" type="curve" smooth="yes" />
      <point x="174" y="491" type="line" smooth="yes" />
      <point x="174" y="546" />
      <point x="206" y="581" />
      <point x="260" y="581" type="curve" smooth="yes" />
      <point x="314" y="581" />
      <point x="345" y="548" />
      <point x="345" y="492" type="curve" smooth="yes" />
      <point x="345" y="461" type="line" smooth="yes" />
      <point x="345" y="404" />
      <point x="314" y="372" />
      <point x="260" y="372" type="curve" smooth="yes" />
      <point x="207" y="372" />
      <point x="174" y="406" />
    </contour>
  </outline>
</glyph>
<glyph name="colon" format="2">
  <advance width="266" />
  <unicode hex="003A" />
  <outline>
    <contour>
      <point x="65" y="0" type="line" />
      <point x="201" y="0" type="line" />
      <point x="201" y="139" type="line" />
      <point x="65" y="139" type="line" />
    </contour>
    <contour>
      <point x="65" y="333" type="line" />
      <point x="201" y="333" type="line" />
      <point x="201" y="473" type="line" />
      <point x="65" y="473" type="line" />
    </contour>
  </outline>
</glyph>
<glyph name="equal" format="2">
  <advance width="520" />
  <unicode hex="003D" />
  <outline>
    <contour>
      <point x="47" y="319" type="line" />
      <point x="473" y="319" type="line" />
      <point x="473" y="430" type="line" />
      <point x="47" y="430" type="line" />
    </contour>
    <contour>
      <point x="47" y="114" type="line" />
      <point x="473" y="114" type="line" />
      <point x="473" y="224" type="line" />
      <point x="47" y="224" type="line" />
    </contour>
  </outline>
</glyph>
<glyph name="greater" format="2">
  <advance width="520" />
  <unicode hex="003E" />
  <outline>
    <contour>
      <point x="47" y="52" type="line" />
      <point x="473" y="219" type="line" />
      <point x="473" y="321" type="line" />
      <point x="47" y="488" type="line" />
      <point x="47" y="374" type="line" />
      <point x="321" y="270" type="line" />
      <point x="47" y="166" type="line" />
    </contour>
  </outline>
</glyph>
<glyph name="question" format="2">
  <advance width="456" />
  <unicode hex="003F" />
  <outline>
    <contour>
      <point x="159" y="190" type="line" />
      <point x="281" y="190" type="line" />
      <point x="281" y="230" type="line" smooth="yes" />
      <point x="281" y="264" />
      <point x="286" y="281" />
      <point x="309" y="308" type="curve" smooth="yes" />
      <point x="366" y="381" type="line" smooth="yes" />
      <point x="403" y="426" />
      <point x="419" y="465" />
      <point x="419" y="515" type="curve" smooth="yes" />
      <point x="419" y="617" />
      <point x="341" y="690" />
      <point x="222" y="690" type="curve" smooth="yes" />
      <point x="97" y="690" />
      <point x="28" y="624" />
      <point x="26" y="500" type="curve" />
      <point x="145" y="500" type="line" />
      <point x="147" y="552" />
      <point x="167" y="578" />
      <point x="218" y="578" type="curve" smooth="yes" />
      <point x="269" y="578" />
      <point x="293" y="552" />
      <point x="293" y="509" type="curve" smooth="yes" />
      <point x="293" y="482" />
      <point x="284" y="461" />
      <point x="255" y="426" type="curve" smooth="yes" />
      <point x="202" y="360" type="line" smooth="yes" />
      <point x="165" y="316" />
      <point x="159" y="293" />
      <point x="159" y="240" type="curve" smooth="yes" />
    </contour>
    <contour>
      <point x="155" y="0" type="line" />
      <point x="284" y="0" type="line" />
      <point x="284" y="124" type="line" />
      <point x="155" y="124" type="line" />
    </contour>
  </outline>
</glyph>
<glyph name="A" format="2">
  <advance width="629" />
  <unicode hex="0041" />
  <anchor x="307" y="680" name="top" />
  <outline>
    <contour>
      <point x="13" y="0" type="line" />
      <point x="148" y="0" type="line" />
      <point x="192" y="132" type="line" />
      <point x="437" y="132" type="line" />
      <point x="479" y="0" type="line" />
      <point x="616" y="0" type="line" />
      <point x="368" y="680" type="line" />
      <point x="262" y="680" type="line" />
    </contour>
    <contour>
      <point x="227" y="240" type="line" />
      <point x="314" y="503" type="line" />
      <point x="400" y="240" type="line" />
    </contour>
  </outline>
</glyph>
<glyph name="B" format="2">
  <advance width="600" />
  <unicode hex="0042" />
  <outline>
    <contour>
      <point x="65" y="0" type="line" />
      <point x="345" y="0" type="line" smooth="yes" />
      <point x="480" y="0" />
      <point x="559" y="72" />
      <point x="559" y="195" type="curve" smooth="yes" />
      <point x="559" y="268" />
      <point x="525" y="323" />
      <point x="462" y="350" type="curve" />
      <point x="517" y="377" />
      <point x="550" y="430" />
      <point x="550" y="491" type="curve" smooth="yes" />
      <point x="550" y="612" />
      <point x="471" y="680" />
      <point x="334" y="680" type="curve" smooth="yes" />
      <point x="65" y="680" type="line" />
    </contour>
    <contour>
      <point x="195" y="113" type="line" />
      <point x="195" y="290" type="line" />
      <point x="334" y="290" type="line" smooth="yes" />
      <point x="398" y="290" />
      <point x="430" y="259" />
      <point x="430" y="204" type="curve" smooth="yes" />
      <point x="430" y="145" />
      <point x="398" y="113" />
      <point x="335" y="113" type="curve" smooth="yes" />
    </contour>
    <contour>
      <point x="195" y="402" type="line" />
      <point x="195" y="568" type="line" />
      <point x="327" y="568" type="line" smooth="yes" />
      <point x="389" y="568" />
      <point x="420" y="539" />
      <point x="420" y="483" type="curve" smooth="yes" />
      <point x="420" y="431" />
      <point x="389" y="402" />
      <point x="326" y="402" type="curve" smooth="yes" />
    </contour>
  </outline>
</glyph>
<glyph name="D" format="2">
  <advance width="611" />
  <unicode hex="0044" />
  <outline>
    <contour>
      <point x="65" y="0" type="line" />
      <point x="305" y="0" type="line" smooth="yes" />
      <point x="464" y="0" />
      <point x="562" y="83" />
      <point x="562" y="277" type="curve" smooth="yes" />
      <point x="562" y="404" type="line" smooth="yes" />
      <point x="562" y="598" />
      <point x="467" y="680" />
      <point x="309" y="680" type="curve" smooth="yes" />
      <point x="65" y="680" type="line" />
    </contour>
    <contour>
      <point x="195" y="113" type="line" />
      <point x="195" y="568" type="line" />
      <point x="308" y="568" type="line" smooth="yes" />
      <point x="393" y="568" />
      <point x="433" y="517" />
      <point x="433" y="397" type="curve" smooth="yes" />
      <point x="433" y="277" type="line" smooth="yes" />
      <point x="433" y="164" />
      <point x="391" y="113" />
      <point x="308" y="113" type="curve" smooth="yes" />
    </contour>
  </outline>
</glyph>
<glyph name="G" format="2">
  <advance width="601" />
  <unicode hex="0047" />
  <outline>
    <contour>
      <point x="303" y="-9" type="curve" smooth="yes" />
      <point x="467" y="-9" />
      <point x="554" y="79" />
      <point x="554" y="253" type="curve" smooth="yes" />
      <point x="554" y="368" type="line" />
      <point x="302" y="368" type="line" />
      <point x="302" y="262" type="line" />
      <point x="428" y="262" type="line" />
      <point x="428" y="232" type="line" smooth="yes" />
      <point x="428" y="148" />
      <point x="390" y="108" />
      <point x="308" y="108" type="curve" smooth="yes" />
      <point x="218" y="108" />
      <point x="177" y="155" />
      <point x="177" y="269" type="curve" smooth="yes" />
      <point x="177" y="407" type="line" smooth="yes" />
      <point x="177" y="526" />
      <point x="215" y="577" />
      <point x="304" y="577" type="curve" smooth="yes" />
      <point x="380" y="577" />
      <point x="425" y="530" />
      <point x="425" y="467" type="curve" smooth="yes" />
      <point x="425" y="461" type="line" />
      <point x="554" y="461" type="line" />
      <point x="554" y="467" type="line" smooth="yes" />
      <point x="554" y="606" />
      <point x="456" y="691" />
      <point x="305" y="691" type="curve" smooth="yes" />
      <point x="135" y="691" />
      <point x="47" y="597" />
      <point x="47" y="414" type="curve" smooth="yes" />
      <point x="47" y="267" type="line" smooth="yes" />
      <point x="47" y="83" />
      <point x="136" y="-9" />
    </contour>
  </outline>
</glyph>
<glyph name="J" format="2">
  <advance width="331" />
  <unicode hex="004A" />
  <anchor x="202" y="680" name="top" />
  <outline>
    <contour>
      <point x="24" y="0" type="line" />
      <point x="109" y="0" type="line" smooth="yes" />
      <point x="211" y="0" />
      <point x="267" y="56" />
      <point x="267" y="159" type="curve" smooth="yes" />
      <point x="267" y="680" type="line" />
      <point x="138" y="680" type="line" />
      <point x="138" y="180" type="line" smooth="yes" />
      <point x="138" y="130" />
      <point x="122" y="114" />
      <point x="78" y="114" type="curve" smooth="yes" />
      <point x="24" y="114" type="line" />
    </contour>
  </outline>
</glyph>
<glyph name="L" format="2">
  <advance width="524" />
  <unicode hex="004C" />
  <outline>
    <contour>
      <point x="65" y="0" type="line" />
      <point x="502" y="0" type="line" />
      <point x="502" y="113" type="line" />
      <point x="195" y="113" type="line" />
      <point x="195" y="680" type="line" />
      <point x="65" y="680" type="line" />
    </contour>
  </outline>
</glyph>
<glyph name="M" format="2">
  <advance width="751" />
  <unicode hex="004D" />
  <outline>
    <contour>
      <point x="65" y="0" type="line" />
      <point x="195" y="0" type="line" />
      <point x="195" y="412" type="line" />
      <point x="334" y="131" type="line" />
      <point x="420" y="131" type="line" />
      <point x="557" y="409" type="line" />
      <point x="557" y="0" type="line" />
      <point x="686" y="0" type="line" />
      <point x="686" y="680" type="line" />
      <point x="557" y="680" type="line" />
      <point x="377" y="301" type="line" />
      <point x="195" y="680" type="line" />
      <point x="65" y="680" type="line" />
    </contour>
  </outline>
</glyph>
<glyph name="P" format="2">
  <advance width="582" />
  <unicode hex="0050" />
  <outline>
    <contour>
      <point x="65" y="0" type="line" />
      <point x="195" y="0" type="line" />
      <point x="195" y="258" type="line" />
      <point x="326" y="258" type="line" smooth="yes" />
      <point x="469" y="258" />
      <point x="553" y="338" />
      <point x="553" y="466" type="curve" smooth="yes" />
      <point x="553" y="599" />
      <point x="469" y="680" />
      <point x="327" y="680" type="curve" smooth="yes" />
      <point x="65" y="680" type="line" />
    </contour>
    <contour>
      <point x="195" y="371" type="line" />
      <point x="195" y="568" type="line" />
      <point x="323" y="568" type="line" smooth="yes" />
      <point x="388" y="568" />
      <point x="424" y="532" />
      <point x="424" y="466" type="curve" smooth="yes" />
      <point x="424" y="405" />
      <point x="387" y="371" />
      <point x="323" y="371" type="curve" smooth="yes" />
    </contour>
  </outline>
</glyph>
<glyph name="Q" format="2">
  <advance width="605" />
  <unicode hex="0051" />
  <anchor x="295" y="680" name="top" />
  <outline>
    <contour>
      <point x="438" y="-152" type="line" />
      <point x="537" y="-97" type="line" />
      <point x="464" y="37" type="line" />
      <point x="526" y="82" />
      <point x="557" y="159" />
      <point x="557" y="267" type="curve" smooth="yes" />
      <point x="557" y="414" type="line" smooth="yes" />
      <point x="557" y="607" />
      <point x="461" y="691" />
      <point x="305" y="691" type="curve" smooth="yes" />
      <point x="138" y="691" />
      <point x="50" y="597" />
      <point x="50" y="414" type="curve" smooth="yes" />
      <point x="50" y="267" type="line" smooth="yes" />
      <point x="50" y="83" />
      <point x="136" y="-9" />
      <point x="301" y="-9" type="curve" smooth="yes" />
      <point x="320" y="-9" />
      <point x="340" y="-7" />
      <point x="358" y="-4" type="curve" />
    </contour>
    <contour>
      <point x="180" y="269" type="curve" smooth="yes" />
      <point x="180" y="407" type="line" smooth="yes" />
      <point x="180" y="526" />
      <point x="217" y="577" />
      <point x="305" y="577" type="curve" smooth="yes" />
      <point x="388" y="577" />
      <point x="428" y="524" />
      <point x="428" y="407" type="curve" smooth="yes" />
      <point x="428" y="269" type="line" smooth="yes" />
      <point x="428" y="158" />
      <point x="388" y="108" />
      <point x="305" y="108" type="curve" smooth="yes" />
      <point x="217" y="108" />
      <point x="180" y="156" />
    </contour>
  </outline>
</glyph>
<glyph name="S" format="2">
  <advance width="553" />
  <unicode hex="0053" />
  <anchor x="269" y="680" name="top" />
  <outline>
    <contour>
      <point x="270" y="-6" type="curve" smooth="yes" />
      <point x="422" y="-6" />
      <point x="519" y="68" />
      <point x="519" y="205" type="curve" smooth="yes" />
      <point x="519" y="313" />
      <point x="459" y="376" />
      <point x="340" y="396" type="curve" smooth="yes" />
      <point x="266" y="409" type="line" smooth="yes" />
      <point x="198" y="419" />
      <point x="166" y="445" />
      <point x="166" y="494" type="curve" smooth="yes" />
      <point x="166" y="548" />
      <point x="201" y="581" />
      <point x="273" y="581" type="curve" smooth="yes" />
      <point x="342" y="581" />
      <point x="378" y="551" />
      <point x="383" y="487" type="curve" />
      <point x="383" y="467" type="line" />
      <point x="507" y="467" type="line" />
      <point x="507" y="487" type="line" />
      <point x="496" y="615" />
      <point x="415" y="690" />
      <point x="276" y="690" type="curve" smooth="yes" />
      <point x="133" y="690" />
      <point x="41" y="612" />
      <point x="41" y="485" type="curve" smooth="yes" />
      <point x="41" y="378" />
      <point x="104" y="315" />
      <point x="230" y="295" type="curve" smooth="yes" />
      <point x="295" y="285" type="line" smooth="yes" />
      <point x="363" y="275" />
      <point x="392" y="248" />
      <point x="392" y="194" type="curve" smooth="yes" />
      <point x="392" y="135" />
      <point x="354" y="105" />
      <point x="277" y="105" type="curve" smooth="yes" />
      <point x="196" y="105" />
      <point x="159" y="136" />
      <point x="149" y="201" type="curve" />
      <point x="149" y="214" type="line" />
      <point x="27" y="214" type="line" />
      <point x="27" y="201" type="line" />
      <point x="37" y="72" />
      <point x="120" y="-6" />
    </contour>
  </outline>
</glyph>
<glyph name="U" format="2">
  <advance width="625" />
  <unicode hex="0055" />
  <anchor x="306" y="680" name="top" />
  <outline>
    <contour>
      <point x="311" y="-6" type="curve" smooth="yes" />
      <point x="455" y="-6" />
      <point x="563" y="91" />
      <point x="563" y="228" type="curve" smooth="yes" />
      <point x="563" y="680" type="line" />
      <point x="433" y="680" type="line" />
      <point x="433" y="233" type="line" smooth="yes" />
      <point x="433" y="153" />
      <point x="387" y="107" />
      <point x="311" y="107" type="curve" smooth="yes" />
      <point x="235" y="107" />
      <point x="192" y="153" />
      <point x="192" y="233" type="curve" smooth="yes" />
      <point x="192" y="680" type="line" />
      <point x="62" y="680" type="line" />
      <point x="62" y="228" type="line" smooth="yes" />
      <point x="62" y="91" />
      <point x="168" y="-6" />
    </contour>
  </outline>
</glyph>
<glyph name="W" format="2">
  <advance width="855" />
  <unicode hex="0057" />
  <outline>
    <contour>
      <point x="184" y="0" type="line" />
      <point x="301" y="0" type="line" />
      <point x="429" y="507" type="line" />
      <point x="557" y="0" type="line" />
      <point x="676" y="0" type="line" />
      <point x="844" y="680" type="line" />
      <point x="723" y="680" type="line" />
      <point x="622" y="196" type="line" />
      <point x="512" y="680" type="line" />
      <point x="351" y="680" type="line" />
      <point x="248" y="196" type="line" />
      <point x="141" y="680" type="line" />
      <point x="11" y="680" type="line" />
    </contour>
  </outline>
</glyph>
<glyph name="X" format="2">
  <advance width="598" />
  <unicode hex="0058" />
  <outline>
    <contour>
      <point x="4" y="0" type="line" />
      <point x="153" y="0" type="line" />
      <point x="296" y="252" type="line" />
      <point x="440" y="0" type="line" />
      <point x="594" y="0" type="line" />
      <point x="373" y="359" type="line" />
      <point x="571" y="680" type="line" />
      <point x="423" y="680" type="line" />
      <point x="300" y="458" type="line" />
      <point x="174" y="680" type="line" />
      <point x="20" y="680" type="line" />
      <point x="222" y="354" type="line" />
    </contour>
  </outline>
</glyph>
<glyph name="Y" format="2">
  <advance width="554" />
  <unicode hex="0059" />
  <anchor x="268" y="680" name="top" />
  <outline>
    <contour>
      <point x="212" y="0" type="line" />
      <point x="341" y="0" type="line" />
      <point x="341" y="280" type="line" />
      <point x="546" y="680" type="line" />
      <point x="402" y="680" type="line" />
      <point x="275" y="402" type="line" />
      <point x="149" y="680" type="line" />
      <point x="7" y="680" type="line" />
      <point x="212" y="279" type="line" />
    </contour>
  </outline>
</glyph>
<glyph name="backslash" format="2">
  <advance width="406" />
  <unicode hex="005C" />
  <outline>
    <contour>
      <point x="261" y="-10" type="line" />
      <point x="363" y="-10" type="line" />
      <point x="146" y="685" type="line" />
      <point x="44" y="685" type="line" />
    </contour>
  </outline>
</glyph>
<glyph name="a" format="2">
  <advance width="517" />
  <unicode hex="0061" />
  <anchor x="249" y="512" name="top" />
  <outline>
    <contour>
      <point x="212" y="-6" type="curve" smooth="yes" />
      <point x="270" y="-6" />
      <point x="302" y="10" />
      <point x="339" y="45" type="curve" />
      <point x="339" y="0" type="line" />
      <point x="457" y="0" type="line" />
      <point x="457" y="335" type="line" smooth="yes" />
      <point x="457" y="455" />
      <point x="384" y="518" />
      <point x="249" y="518" type="curve" smooth="yes" />
      <point x="132" y="518" />
      <point x="56" y="459" />
      <point x="56" y="363" type="curve" smooth="yes" />
      <point x="56" y="359" type="line" />
      <point x="170" y="359" type="line" />
      <point x="170" y="362" type="line" smooth="yes" />
      <point x="170" y="399" />
      <point x="198" y="424" />
      <point x="248" y="424" type="curve" smooth="yes" />
      <point x="307" y="424" />
      <point x="336" y="396" />
      <point x="336" y="341" type="curve" smooth="yes" />
      <point x="336" y="302" type="line" />
      <point x="221" y="302" type="line" smooth="yes" />
      <point x="108" y="302" />
      <point x="42" y="247" />
      <point x="42" y="154" type="curve" smooth="yes" />
      <point x="42" y="53" />
      <point x="102" y="-6" />
    </contour>
    <contour>
      <point x="160" y="157" type="curve" smooth="yes" />
      <point x="160" y="198" />
      <point x="187" y="218" />
      <point x="242" y="218" type="curve" smooth="yes" />
      <point x="336" y="218" type="line" />
      <point x="336" y="183" type="line" smooth="yes" />
      <point x="336" y="122" />
      <point x="306" y="92" />
      <point x="240" y="92" type="curve" smooth="yes" />
      <point x="187" y="92" />
      <point x="160" y="114" />
    </contour>
  </outline>
</glyph>
<glyph name="b" format="2">
  <advance width="523" />
  <unicode hex="0062" />
  <outline>
    <contour>
      <point x="308" y="-7" type="curve" smooth="yes" />
      <point x="410" y="-7" />
      <point x="484" y="66" />
      <point x="484" y="211" type="curve" smooth="yes" />
      <point x="484" y="304" type="line" smooth="yes" />
      <point x="484" y="447" />
      <point x="411" y="519" />
      <point x="305" y="519" type="curve" smooth="yes" />
      <point x="255" y="519" />
      <point x="214" y="498" />
      <point x="185" y="459" type="curve" />
      <point x="185" y="680" type="line" />
      <point x="63" y="680" type="line" />
      <point x="63" y="0" type="line" />
      <point x="182" y="0" type="line" />
      <point x="182" y="48" type="line" />
      <point x="212" y="12" />
      <point x="254" y="-7" />
    </contour>
    <contour>
      <point x="184" y="213" type="curve" smooth="yes" />
      <point x="184" y="299" type="line" smooth="yes" />
      <point x="184" y="370" />
      <point x="219" y="411" />
      <point x="275" y="411" type="curve" smooth="yes" />
      <point x="329" y="411" />
      <point x="362" y="377" />
      <point x="362" y="299" type="curve" smooth="yes" />
      <point x="362" y="215" type="line" smooth="yes" />
      <point x="362" y="139" />
      <point x="333" y="102" />
      <point x="277" y="102" type="curve" smooth="yes" />
      <point x="219" y="102" />
      <point x="184" y="141" />
    </contour>
  </outline>
</glyph>
<glyph name="d" format="2">
  <advance width="523" />
  <unicode hex="0064" />
  <outline>
    <contour>
      <point x="215" y="-7" type="curve" smooth="yes" />
      <point x="269" y="-7" />
      <point x="311" y="12" />
      <point x="340" y="49" type="curve" />
      <point x="340" y="0" type="line" />
      <point x="460" y="0" type="line" />
      <point x="460" y="680" type="line" />
      <point x="338" y="680" type="line" />
      <point x="338" y="459" type="line" />
      <point x="309" y="498" />
      <point x="266" y="519" />
      <point x="213" y="519" type="curve" smooth="yes" />
      <point x="110" y="519" />
      <point x="39" y="446" />
      <point x="39" y="303" type="curve" smooth="yes" />
      <point x="39" y="210" type="line" smooth="yes" />
      <point x="39" y="65" />
      <point x="112" y="-7" />
    </contour>
    <contour>
      <point x="161" y="214" type="curve" smooth="yes" />
      <point x="161" y="298" type="line" smooth="yes" />
      <point x="161" y="372" />
      <point x="190" y="411" />
      <point x="249" y="411" type="curve" smooth="yes" />
      <point x="305" y="411" />
      <point x="338" y="370" />
      <point x="338" y="299" type="curve" smooth="yes" />
      <point x="338" y="213" type="line" smooth="yes" />
      <point x="338" y="141" />
      <point x="305" y="102" />
      <point x="246" y="102" type="curve" smooth="yes" />
      <point x="190" y="102" />
      <point x="161" y="139" />
    </contour>
  </outline>
</glyph>
<glyph name="f" format="2">
  <advance width="331" />
  <unicode hex="0066" />
  <outline>
    <contour>
      <point x="91" y="0" type="line" />
      <point x="213" y="0" type="line" />
      <point x="213" y="426" type="line" />
      <point x="308" y="426" type="line" />
      <point x="308" y="512" type="line" />
      <point x="213" y="512" type="line" />
      <point x="213" y="545" type="line" smooth="yes" />
      <point x="213" y="580" />
      <point x="229" y="597" />
      <point x="266" y="597" type="curve" smooth="yes" />
      <point x="308" y="597" type="line" />
      <point x="308" y="680" type="line" />
      <point x="236" y="680" type="line" smooth="yes" />
      <point x="143" y="680" />
      <point x="91" y="629" />
      <point x="91" y="541" type="curve" smooth="yes" />
      <point x="91" y="512" type="line" />
      <point x="35" y="512" type="line" />
      <point x="35" y="426" type="line" />
      <point x="91" y="426" type="line" />
    </contour>
  </outline>
</glyph>
<glyph name="g" format="2">
  <advance width="521" />
  <unicode hex="0067" />
  <outline>
    <contour>
      <point x="243" y="-162" type="curve" smooth="yes" />
      <point x="378" y="-162" />
      <point x="458" y="-84" />
      <point x="458" y="39" type="curve" smooth="yes" />
      <point x="458" y="512" type="line" />
      <point x="336" y="512" type="line" />
      <point x="336" y="459" type="line" />
      <point x="307" y="498" />
      <point x="264" y="519" />
      <point x="211" y="519" type="curve" smooth="yes" />
      <point x="108" y="519" />
      <point x="37" y="447" />
      <point x="37" y="305" type="curve" smooth="yes" />
      <point x="37" y="252" type="line" smooth="yes" />
      <point x="37" y="109" />
      <point x="110" y="38" />
      <point x="213" y="38" type="curve" smooth="yes" />
      <point x="267" y="38" />
      <point x="309" y="55" />
      <point x="337" y="92" type="curve" />
      <point x="337" y="32" type="line" smooth="yes" />
      <point x="337" y="-33" />
      <point x="308" y="-65" />
      <point x="248" y="-65" type="curve" smooth="yes" />
      <point x="200" y="-65" />
      <point x="169" y="-43" />
      <point x="162" y="-13" type="curve" />
      <point x="45" y="-13" type="line" />
      <point x="51" y="-106" />
      <point x="122" y="-162" />
    </contour>
    <contour>
      <point x="159" y="256" type="curve" smooth="yes" />
      <point x="159" y="300" type="line" smooth="yes" />
      <point x="159" y="373" />
      <point x="189" y="411" />
      <point x="247" y="411" type="curve" smooth="yes" />
      <point x="302" y="411" />
      <point x="336" y="370" />
      <point x="336" y="301" type="curve" smooth="yes" />
      <point x="336" y="255" type="line" smooth="yes" />
      <point x="336" y="186" />
      <point x="303" y="146" />
      <point x="244" y="146" type="curve" smooth="yes" />
      <point x="187" y="146" />
      <point x="159" y="183" />
    </contour>
  </outline>
</glyph>
<glyph name="i" format="2">
  <advance width="250" />
  <unicode hex="0069" />
  <anchor x="125" y="512" name="top" />
  <outline>
    <contour>
      <point x="65" y="0" type="line" />
      <point x="186" y="0" type="line" />
      <point x="186" y="512" type="line" />
      <point x="65" y="512" type="line" />
    </contour>
    <contour>
      <point x="63" y="583" type="line" />
      <point x="187" y="583" type="line" />
      <point x="187" y="681" type="line" />
      <point x="63" y="681" type="line" />
    </contour>
  </outline>
</glyph>
<glyph name="j" format="2">
  <advance width="259" />
  <unicode hex="006A" />
  <outline>
    <contour>
      <point x="-21" y="-154" type="line" />
      <point x="38" y="-154" type="line" smooth="yes" />
      <point x="140" y="-154" />
      <point x="196" y="-99" />
      <point x="196" y="4" type="curve" smooth="yes" />
      <point x="196" y="512" type="line" />
      <point x="75" y="512" type="line" />
      <point x="75" y="12" type="line" smooth="yes" />
      <point x="75" y="-32" />
      <point x="59" y="-48" />
      <point x="22" y="-48" type="curve" smooth="yes" />
      <point x="-21" y="-48" type="line" />
    </contour>
    <contour>
      <point x="73" y="583" type="line" />
      <point x="196" y="583" type="line" />
      <point x="196" y="681" type="line" />
      <point x="73" y="681" type="line" />
    </contour>
  </outline>
</glyph>
<glyph name="k" format="2">
  <advance width="535" />
  <unicode hex="006B" />
  <outline>
    <contour>
      <point x="63" y="0" type="line" />
      <point x="185" y="0" type="line" />
      <point x="185" y="153" type="line" />
      <point x="244" y="217" type="line" />
      <point x="371" y="0" type="line" />
      <point x="520" y="0" type="line" />
      <point x="326" y="310" type="line" />
      <point x="506" y="512" type="line" />
      <point x="359" y="512" type="line" />
      <point x="185" y="298" type="line" />
      <point x="185" y="680" type="line" />
      <point x="63" y="680" type="line" />
    </contour>
  </outline>
</glyph>
<glyph name="m" format="2">
  <advance width="829" />
  <unicode hex="006D" />
  <outline>
    <contour>
      <point x="63" y="0" type="line" />
      <point x="185" y="0" type="line" />
      <point x="185" y="314" type="line" smooth="yes" />
      <point x="185" y="387" />
      <point x="233" y="410" />
      <point x="272" y="410" type="curve" smooth="yes" />
      <point x="344" y="410" />
      <point x="355" y="347" />
      <point x="355" y="316" type="curve" smooth="yes" />
      <point x="355" y="0" type="line" />
      <point x="477" y="0" type="line" />
      <point x="477" y="316" type="line" smooth="yes" />
      <point x="477" y="363" />
      <point x="502" y="410" />
      <point x="564" y="410" type="curve" smooth="yes" />
      <point x="636" y="410" />
      <point x="648" y="347" />
      <point x="648" y="315" type="curve" smooth="yes" />
      <point x="648" y="0" type="line" />
      <point x="770" y="0" type="line" />
      <point x="770" y="331" type="line" smooth="yes" />
      <point x="770" y="495" />
      <point x="644" y="518" />
      <point x="592" y="518" type="curve" smooth="yes" />
      <point x="533" y="518" />
      <point x="482" y="496" />
      <point x="443" y="453" type="curve" />
      <point x="412" y="496" />
      <point x="366" y="518" />
      <point x="308" y="518" type="curve" smooth="yes" />
      <point x="244" y="518" />
      <point x="199" y="482" />
      <point x="182" y="464" type="curve" />
      <point x="182" y="512" type="line" />
      <point x="63" y="512" type="line" />
    </contour>
  </outline>
</glyph>
<glyph name="n" format="2">
  <advance width="538" />
  <unicode hex="006E" />
  <anchor x="266" y="512" name="top" />
  <outline>
    <contour>
      <point x="63" y="0" type="line" />
      <point x="185" y="0" type="line" />
      <point x="185" y="314" type="line" smooth="yes" />
      <point x="185" y="376" />
      <point x="221" y="410" />
      <point x="273" y="410" type="curve" smooth="yes" />
      <point x="325" y="410" />
      <point x="357" y="376" />
      <point x="357" y="315" type="curve" smooth="yes" />
      <point x="357" y="0" type="line" />
      <point x="479" y="0" type="line" />
      <point x="479" y="331" type="line" smooth="yes" />
      <point x="479" y="446" />
      <point x="418" y="518" />
      <point x="309" y="518" type="curve" smooth="yes" />
      <point x="260" y="518" />
      <point x="214" y="499" />
      <point x="182" y="464" type="curve" />
      <point x="182" y="512" type="line" />
      <point x="63" y="512" type="line" />
    </contour>
  </outline>
</glyph>
<glyph name="q" format="2">
  <advance width="523" />
  <unicode hex="0071" />
  <outline>
    <contour>
      <point x="338" y="-154" type="line" />
      <point x="460" y="-154" type="line" />
      <point x="460" y="512" type="line" />
      <point x="340" y="512" type="line" />
      <point x="340" y="459" type="line" />
      <point x="310" y="498" />
      <point x="268" y="519" />
      <point x="217" y="519" type="curve" smooth="yes" />
      <point x="111" y="519" />
      <point x="39" y="446" />
      <point x="39" y="303" type="curve" smooth="yes" />
      <point x="39" y="210" type="line" smooth="yes" />
      <point x="39" y="65" />
      <point x="112" y="-7" />
      <point x="215" y="-7" type="curve" smooth="yes" />
      <point x="268" y="-7" />
      <point x="310" y="12" />
      <point x="338" y="48" type="curve" />
    </contour>
    <contour>
      <point x="161" y="214" type="curve" smooth="yes" />
      <point x="161" y="298" type="line" smooth="yes" />
      <point x="161" y="372" />
      <point x="190" y="411" />
      <point x="249" y="411" type="curve" smooth="yes" />
      <point x="305" y="411" />
      <point x="338" y="370" />
      <point x="338" y="299" type="curve" smooth="yes" />
      <point x="338" y="213" type="line" smooth="yes" />
      <point x="338" y="141" />
      <point x="305" y="102" />
      <point x="246" y="102" type="curve" smooth="yes" />
      <point x="190" y="102" />
      <point x="161" y="139" />
    </contour>
  </outline>
</glyph>
<glyph name="r" format="2">
  <advance width="357" />
  <unicode hex="0072" />
  <outline>
    <contour>
      <point x="63" y="0" type="line" />
      <point x="185" y="0" type="line" />
      <point x="185" y="302" type="line" smooth="yes" />
      <point x="185" y="374" />
      <point x="225" y="416" />
      <point x="289" y="416" type="curve" smooth="yes" />
      <point x="308" y="416" />
      <point x="329" y="413" />
      <point x="351" y="405" type="curve" />
      <point x="351" y="519" type="line" />
      <point x="339" y="522" />
      <point x="326" y="523" />
      <point x="309" y="523" type="curve" smooth="yes" />
      <point x="255" y="523" />
      <point x="209" y="502" />
      <point x="182" y="458" type="curve" />
      <point x="182" y="512" type="line" />
      <point x="63" y="512" type="line" />
    </contour>
  </outline>
</glyph>
<glyph name="u" format="2">
  <advance width="537"/>
  <unicode hex="0075"/>
  <anchor x="271" y="0" name="top"/>
  <outline>
    <contour>
      <point x="474" y="512" type="line"/>
      <point x="352" y="512" type="line"/>
      <point x="352" y="198" type="line" smooth="yes"/>
      <point x="352" y="136"/>
      <point x="316" y="102"/>
      <point x="264" y="102" type="curve" smooth="yes"/>
      <point x="212" y="102"/>
      <point x="180" y="136"/>
      <point x="180" y="197" type="curve" smooth="yes"/>
      <point x="180" y="512" type="line"/>
      <point x="58" y="512" type="line"/>
      <point x="58" y="181" type="line" smooth="yes"/>
      <point x="58" y="66"/>
      <point x="119" y="-6"/>
      <point x="228" y="-6" type="curve" smooth="yes"/>
      <point x="277" y="-6"/>
      <point x="323" y="13"/>
      <point x="355" y="48" type="curve"/>
      <point x="355" y="0" type="line"/>
      <point x="474" y="0" type="line"/>
    </contour>
  </outline>
</glyph>
<glyph name="v" format="2">
  <advance width="495" />
  <unicode hex="0076" />
  <outline>
    <contour>
      <point x="197" y="0" type="line" />
      <point x="297" y="0" type="line" />
      <point x="481" y="512" type="line" />
      <point x="351" y="512" type="line" />
      <point x="248" y="183" type="line" />
      <point x="144" y="512" type="line" />
      <point x="14" y="512" type="line" />
    </contour>
  </outline>
</glyph>
<glyph name="w" format="2">
  <advance width="759" />
  <unicode hex="0077" />
  <outline>
    <contour>
      <point x="172" y="0" type="line" />
      <point x="274" y="0" type="line" />
      <point x="378" y="335" type="line" />
      <point x="482" y="0" type="line" />
      <point x="586" y="0" type="line" />
      <point x="742" y="512" type="line" />
      <point x="611" y="512" type="line" />
      <point x="527" y="184" type="line" />
      <point x="425" y="512" type="line" />
      <point x="333" y="512" type="line" />
      <point x="230" y="184" type="line" />
      <point x="146" y="512" type="line" />
      <point x="17" y="512" type="line" />
    </contour>
  </outline>
</glyph>
<glyph name="x" format="2">
  <advance width="477" />
  <unicode hex="0078" />
  <outline>
    <contour>
      <point x="16" y="0" type="line" />
      <point x="145" y="0" type="line" />
      <point x="234" y="164" type="line" />
      <point x="333" y="0" type="line" />
      <point x="461" y="0" type="line" />
      <point x="300" y="268" type="line" />
      <point x="452" y="512" type="line" />
      <point x="323" y="512" type="line" />
      <point x="243" y="365" type="line" />
      <point x="154" y="512" type="line" />
      <point x="24" y="512" type="line" />
      <point x="174" y="264" type="line" />
    </contour>
  </outline>
</glyph>
<glyph name="y" format="2">
  <advance width="492" />
  <unicode hex="0079" />
  <anchor x="241" y="512" name="top" />
  <outline>
    <contour>
      <point x="80" y="-152" type="line" />
      <point x="123" y="-152" type="line" smooth="yes" />
      <point x="206" y="-152" />
      <point x="254" y="-119" />
      <point x="282" y="-44" type="curve" smooth="yes" />
      <point x="480" y="512" type="line" />
      <point x="355" y="512" type="line" />
      <point x="248" y="187" type="line" />
      <point x="142" y="512" type="line" />
      <point x="12" y="512" type="line" />
      <point x="192" y="13" type="line" />
      <point x="190" y="6" type="line" smooth="yes" />
      <point x="178" y="-32" />
      <point x="162" y="-42" />
      <point x="121" y="-42" type="curve" smooth="yes" />
      <point x="80" y="-42" type="line" />
    </contour>
  </outline>
</glyph>
<glyph name="braceleft" format="2">
  <advance width="362" />
  <unicode hex="007B" />
  <outline>
    <contour>
      <point x="247" y="-83" type="curve" smooth="yes" />
      <point x="318" y="-83" type="line" />
      <point x="318" y="15" type="line" />
      <point x="283" y="15" type="line" smooth="yes" />
      <point x="252" y="15" />
      <point x="238" y="30" />
      <point x="238" y="60" type="curve" smooth="yes" />
      <point x="238" y="200" type="line" smooth="yes" />
      <point x="238" y="274" />
      <point x="219" y="306" />
      <point x="167" y="325" type="curve" />
      <point x="219" y="342" />
      <point x="238" y="375" />
      <point x="238" y="450" type="curve" smooth="yes" />
      <point x="238" y="586" type="line" smooth="yes" />
      <point x="238" y="616" />
      <point x="251" y="630" />
      <point x="283" y="630" type="curve" smooth="yes" />
      <point x="318" y="630" type="line" />
      <point x="318" y="729" type="line" />
      <point x="247" y="729" type="line" smooth="yes" />
      <point x="166" y="729" />
      <point x="122" y="686" />
      <point x="122" y="608" type="curve" smooth="yes" />
      <point x="122" y="456" type="line" smooth="yes" />
      <point x="122" y="400" />
      <point x="102" y="377" />
      <point x="44" y="377" type="curve" />
      <point x="44" y="273" type="line" />
      <point x="102" y="273" />
      <point x="122" y="250" />
      <point x="122" y="194" type="curve" smooth="yes" />
      <point x="122" y="39" type="line" smooth="yes" />
      <point x="122" y="-40" />
      <point x="166" y="-83" />
    </contour>
  </outline>
</glyph>
<glyph name="braceright" format="2">
  <advance width="362" />
  <unicode hex="007D" />
  <outline>
    <contour>
      <point x="44" y="-83" type="line" />
      <point x="116" y="-83" type="line" smooth="yes" />
      <point x="197" y="-83" />
      <point x="240" y="-40" />
      <point x="240" y="39" type="curve" smooth="yes" />
      <point x="240" y="194" type="line" smooth="yes" />
      <point x="240" y="250" />
      <point x="262" y="273" />
      <point x="318" y="273" type="curve" />
      <point x="318" y="377" type="line" />
      <point x="262" y="377" />
      <point x="240" y="400" />
      <point x="240" y="456" type="curve" smooth="yes" />
      <point x="240" y="608" type="line" smooth="yes" />
      <point x="240" y="686" />
      <point x="197" y="729" />
      <point x="116" y="729" type="curve" smooth="yes" />
      <point x="44" y="729" type="line" />
      <point x="44" y="630" type="line" />
      <point x="80" y="630" type="line" smooth="yes" />
      <point x="111" y="630" />
      <point x="126" y="617" />
      <point x="126" y="586" type="curve" smooth="yes" />
      <point x="126" y="450" type="line" smooth="yes" />
      <point x="126" y="375" />
      <point x="144" y="342" />
      <point x="196" y="325" type="curve" />
      <point x="144" y="306" />
      <point x="126" y="274" />
      <point x="126" y="200" type="curve" smooth="yes" />
      <point x="126" y="60" type="line" smooth="yes" />
      <point x="126" y="30" />
      <point x="111" y="15" />
      <point x="80" y="15" type="curve" smooth="yes" />
      <point x="44" y="15" type="line" />
    </contour>
  </outline>
</glyph>
<glyph name="exclamdown" format="2">
  <advance width="244" />
  <unicode hex="00A1" />
  <outline>
    <contour>
      <point x="57" y="383" type="line" />
      <point x="189" y="383" type="line" />
      <point x="189" y="512" type="line" />
      <point x="57" y="512" type="line" />
    </contour>
    <contour>
      <point x="53" y="-154" type="line" />
      <point x="192" y="-154" type="line" />
      <point x="168" y="286" type="line" />
      <point x="77" y="286" type="line" />
    </contour>
  </outline>
</glyph>
<glyph name="cent" format="2">
  <advance width="541" />
  <unicode hex="00A2" />
  <outline>
    <contour>
      <point x="245" y="-98" type="line" />
      <point x="306" y="-98" type="line" />
      <point x="306" y="-3" type="line" />
      <point x="404" y="13" />
      <point x="464" y="78" />
      <point x="464" y="177" type="curve" smooth="yes" />
      <point x="464" y="183" type="line" />
      <point x="346" y="183" type="line" />
      <point x="346" y="177" type="line" smooth="yes" />
      <point x="346" y="129" />
      <point x="315" y="102" />
      <point x="260" y="102" type="curve" smooth="yes" />
      <point x="199" y="102" />
      <point x="165" y="134" />
      <point x="165" y="214" type="curve" smooth="yes" />
      <point x="165" y="299" type="line" smooth="yes" />
      <point x="165" y="373" />
      <point x="197" y="411" />
      <point x="260" y="411" type="curve" smooth="yes" />
      <point x="315" y="411" />
      <point x="346" y="380" />
      <point x="346" y="332" type="curve" smooth="yes" />
      <point x="346" y="326" type="line" />
      <point x="464" y="326" type="line" />
      <point x="464" y="335" type="line" smooth="yes" />
      <point x="464" y="435" />
      <point x="407" y="499" />
      <point x="306" y="516" type="curve" />
      <point x="306" y="622" type="line" />
      <point x="245" y="622" type="line" />
      <point x="245" y="518" type="line" />
      <point x="120" y="515" />
      <point x="44" y="442" />
      <point x="44" y="301" type="curve" smooth="yes" />
      <point x="44" y="213" type="line" smooth="yes" />
      <point x="44" y="68" />
      <point x="120" y="-2" />
      <point x="245" y="-6" type="curve" />
    </contour>
  </outline>
</glyph>
<glyph name="sterling" format="2">
  <advance width="469" />
  <unicode hex="00A3" />
  <outline>
    <contour>
      <point x="43" y="0" type="line" />
      <point x="445" y="0" type="line" />
      <point x="445" y="112" type="line" />
      <point x="186" y="112" type="line" />
      <point x="206" y="134" />
      <point x="216" y="166" />
      <point x="216" y="211" type="curve" smooth="yes" />
      <point x="216" y="272" type="line" />
      <point x="351" y="272" type="line" />
      <point x="351" y="384" type="line" />
      <point x="216" y="384" type="line" />
      <point x="216" y="518" type="line" smooth="yes" />
      <point x="216" y="557" />
      <point x="237" y="580" />
      <point x="272" y="580" type="curve" smooth="yes" />
      <point x="306" y="580" />
      <point x="325" y="561" />
      <point x="325" y="525" type="curve" />
      <point x="445" y="525" type="line" />
      <point x="445" y="631" />
      <point x="378" y="690" />
      <point x="270" y="690" type="curve" smooth="yes" />
      <point x="154" y="690" />
      <point x="88" y="620" />
      <point x="88" y="502" type="curve" smooth="yes" />
      <point x="88" y="384" type="line" />
      <point x="26" y="384" type="line" />
      <point x="26" y="272" type="line" />
      <point x="88" y="272" type="line" />
      <point x="88" y="198" type="line" smooth="yes" />
      <point x="88" y="146" />
      <point x="75" y="121" />
      <point x="43" y="107" type="curve" />
    </contour>
  </outline>
</glyph>
<glyph name="currency" format="2">
  <advance width="586" />
  <unicode hex="00A4" />
  <outline>
    <contour>
      <point x="124" y="73" type="line" />
      <point x="189" y="138" type="line" />
      <point x="220" y="119" />
      <point x="254" y="111" />
      <point x="292" y="111" type="curve" smooth="yes" />
      <point x="331" y="111" />
      <point x="366" y="119" />
      <point x="396" y="138" type="curve" />
      <point x="461" y="73" type="line" />
      <point x="533" y="145" type="line" />
      <point x="467" y="210" type="line" />
      <point x="485" y="240" />
      <point x="493" y="274" />
      <point x="493" y="312" type="curve" smooth="yes" />
      <point x="493" y="347" />
      <point x="484" y="380" />
      <point x="467" y="412" type="curve" />
      <point x="532" y="478" type="line" />
      <point x="461" y="549" type="line" />
      <point x="395" y="485" type="line" />
      <point x="364" y="502" />
      <point x="329" y="511" />
      <point x="292" y="511" type="curve" smooth="yes" />
      <point x="256" y="511" />
      <point x="222" y="502" />
      <point x="190" y="485" type="curve" />
      <point x="125" y="549" type="line" />
      <point x="53" y="478" type="line" />
      <point x="119" y="412" type="line" />
      <point x="102" y="380" />
      <point x="92" y="347" />
      <point x="92" y="312" type="curve" smooth="yes" />
      <point x="92" y="273" />
      <point x="101" y="240" />
      <point x="118" y="211" type="curve" />
      <point x="52" y="145" type="line" />
    </contour>
    <contour>
      <point x="292" y="207" type="curve" smooth="yes" />
      <point x="235" y="207" />
      <point x="192" y="252" />
      <point x="192" y="312" type="curve" smooth="yes" />
      <point x="192" y="371" />
      <point x="235" y="415" />
      <point x="292" y="415" type="curve" smooth="yes" />
      <point x="352" y="415" />
      <point x="394" y="371" />
      <point x="394" y="312" type="curve" smooth="yes" />
      <point x="394" y="252" />
      <point x="352" y="207" />
    </contour>
  </outline>
</glyph>
<glyph name="yen" format="2">
  <advance width="501" />
  <unicode hex="00A5" />
  <outline>
    <contour>
      <point x="186" y="0" type="line" />
      <point x="316" y="0" type="line" />
      <point x="316" y="115" type="line" />
      <point x="447" y="115" type="line" />
      <point x="447" y="202" type="line" />
      <point x="316" y="202" type="line" />
      <point x="316" y="256" type="line" />
      <point x="447" y="256" type="line" />
      <point x="447" y="342" type="line" />
      <point x="336" y="342" type="line" />
      <point x="494" y="680" type="line" />
      <point x="362" y="680" type="line" />
      <point x="253" y="407" type="line" />
      <point x="141" y="680" type="line" />
      <point x="7" y="680" type="line" />
      <point x="165" y="342" type="line" />
      <point x="54" y="342" type="line" />
      <point x="54" y="256" type="line" />
      <point x="186" y="256" type="line" />
      <point x="186" y="202" type="line" />
      <point x="54" y="202" type="line" />
      <point x="54" y="115" type="line" />
      <point x="186" y="115" type="line" />
    </contour>
  </outline>
</glyph>
<glyph name="logicalnot" format="2">
  <advance width="520" />
  <unicode hex="00AC" />
  <outline>
    <contour>
      <point x="350" y="87" type="line" />
      <point x="470" y="87" type="line" />
      <point x="470" y="328" type="line" />
      <point x="49" y="328" type="line" />
      <point x="49" y="215" type="line" />
      <point x="350" y="215" type="line" />
    </contour>
  </outline>
</glyph>
<glyph name="paragraph" format="2">
  <advance width="644" />
  <unicode hex="00B6" />
  <outline>
    <contour>
      <point x="262" y="-154" type="line" />
      <point x="370" y="-154" type="line" />
      <point x="370" y="581" type="line" />
      <point x="452" y="581" type="line" />
      <point x="452" y="-154" type="line" />
      <point x="557" y="-154" type="line" />
      <point x="557" y="680" type="line" />
      <point x="285" y="680" type="line" smooth="yes" />
      <point x="143" y="680" />
      <point x="58" y="589" />
      <point x="58" y="466" type="curve" smooth="yes" />
      <point x="58" y="344" />
      <point x="139" y="258" />
      <point x="262" y="251" type="curve" />
    </contour>
  </outline>
</glyph>
<glyph name="ordmasculine" format="2">
  <advance width="354" />
  <unicode hex="00BA" />
  <outline>
    <contour>
      <point x="177" y="419" type="curve" smooth="yes" />
      <point x="262" y="419" />
      <point x="313" y="464" />
      <point x="313" y="553" type="curve" smooth="yes" />
      <point x="313" y="605" type="line" smooth="yes" />
      <point x="313" y="694" />
      <point x="263" y="737" />
      <point x="177" y="737" type="curve" smooth="yes" />
      <point x="92" y="737" />
      <point x="41" y="694" />
      <point x="41" y="605" type="curve" smooth="yes" />
      <point x="41" y="553" type="line" smooth="yes" />
      <point x="41" y="464" />
      <point x="92" y="419" />
    </contour>
    <contour>
      <point x="129" y="553" type="curve" smooth="yes" />
      <point x="129" y="604" type="line" smooth="yes" />
      <point x="129" y="640" />
      <point x="145" y="658" />
      <point x="177" y="658" type="curve" smooth="yes" />
      <point x="208" y="658" />
      <point x="224" y="640" />
      <point x="224" y="604" type="curve" smooth="yes" />
      <point x="224" y="553" type="line" smooth="yes" />
      <point x="224" y="517" />
      <point x="208" y="498" />
      <point x="177" y="498" type="curve" smooth="yes" />
      <point x="145" y="498" />
      <point x="129" y="517" />
    </contour>
  </outline>
</glyph>
<glyph name="guillemotright" format="2">
  <advance width="528" />
  <unicode hex="00BB" />
  <outline>
    <contour>
      <point x="53" y="37" type="line" />
      <point x="283" y="260" type="line" />
      <point x="53" y="484" type="line" />
      <point x="53" y="356" type="line" />
      <point x="152" y="260" type="line" />
      <point x="53" y="164" type="line" />
    </contour>
    <contour>
      <point x="283" y="37" type="line" />
      <point x="511" y="260" type="line" />
      <point x="283" y="484" type="line" />
      <point x="283" y="356" type="line" />
      <point x="380" y="260" type="line" />
      <point x="283" y="164" type="line" />
    </contour>
  </outline>
</glyph>
<glyph name="questiondown" format="2">
  <advance width="453" />
  <unicode hex="00BF" />
  <outline>
    <contour>
      <point x="231" y="-164" type="curve" smooth="yes" />
      <point x="355" y="-164" />
      <point x="425" y="-98" />
      <point x="427" y="26" type="curve" />
      <point x="308" y="26" type="line" />
      <point x="306" y="-26" />
      <point x="286" y="-53" />
      <point x="235" y="-53" type="curve" smooth="yes" />
      <point x="186" y="-53" />
      <point x="160" y="-27" />
      <point x="160" y="16" type="curve" smooth="yes" />
      <point x="160" y="45" />
      <point x="169" y="68" />
      <point x="198" y="100" type="curve" smooth="yes" />
      <point x="244" y="152" type="line" smooth="yes" />
      <point x="288" y="199" />
      <point x="295" y="224" />
      <point x="295" y="283" type="curve" smooth="yes" />
      <point x="295" y="318" type="line" />
      <point x="173" y="318" type="line" />
      <point x="173" y="292" type="line" smooth="yes" />
      <point x="173" y="253" />
      <point x="167" y="234" />
      <point x="136" y="199" type="curve" smooth="yes" />
      <point x="90" y="150" type="line" smooth="yes" />
      <point x="49" y="103" />
      <point x="34" y="63" />
      <point x="34" y="10" type="curve" smooth="yes" />
      <point x="34" y="-91" />
      <point x="111" y="-164" />
    </contour>
    <contour>
      <point x="169" y="384" type="line" />
      <point x="298" y="384" type="line" />
      <point x="298" y="512" type="line" />
      <point x="169" y="512" type="line" />
    </contour>
  </outline>
</glyph>
<glyph name="multiply" format="2">
  <advance width="520" />
  <unicode hex="00D7" />
  <outline>
    <contour>
      <point x="142" y="79" type="line" />
      <point x="261" y="197" type="line" />
      <point x="378" y="79" type="line" />
      <point x="453" y="155" type="line" />
      <point x="336" y="272" type="line" />
      <point x="453" y="389" type="line" />
      <point x="378" y="465" type="line" />
      <point x="261" y="347" type="line" />
      <point x="142" y="465" type="line" />
      <point x="68" y="391" type="line" />
      <point x="186" y="272" type="line" />
      <point x="68" y="155" type="line" />
    </contour>
  </outline>
</glyph>
<glyph name="germandbls" format="2">
  <advance width="526" />
  <unicode hex="00DF" />
  <outline>
    <contour>
      <point x="255" y="-4" type="line" />
      <point x="296" y="-4" type="line" smooth="yes" />
      <point x="449" y="-4" />
      <point x="482" y="49" />
      <point x="482" y="225" type="curve" smooth="yes" />
      <point x="482" y="341" />
      <point x="473" y="381" />
      <point x="415" y="412" type="curve" />
      <point x="455" y="438" />
      <point x="473" y="474" />
      <point x="473" y="527" type="curve" smooth="yes" />
      <point x="473" y="631" />
      <point x="397" y="690" />
      <point x="265" y="690" type="curve" smooth="yes" />
      <point x="117" y="690" />
      <point x="53" y="621" />
      <point x="53" y="489" type="curve" smooth="yes" />
      <point x="53" y="0" type="line" />
      <point x="175" y="0" type="line" />
      <point x="175" y="499" type="line" smooth="yes" />
      <point x="175" y="559" />
      <point x="203" y="585" />
      <point x="266" y="585" type="curve" smooth="yes" />
      <point x="325" y="585" />
      <point x="352" y="566" />
      <point x="352" y="521" type="curve" smooth="yes" />
      <point x="352" y="479" />
      <point x="333" y="458" />
      <point x="287" y="458" type="curve" smooth="yes" />
      <point x="255" y="458" type="line" />
      <point x="255" y="357" type="line" />
      <point x="279" y="357" type="line" smooth="yes" />
      <point x="353" y="357" />
      <point x="362" y="330" />
      <point x="362" y="227" type="curve" smooth="yes" />
      <point x="362" y="121" />
      <point x="356" y="98" />
      <point x="288" y="98" type="curve" smooth="yes" />
      <point x="255" y="98" type="line" />
    </contour>
  </outline>
</glyph>
<glyph name="divide" format="2">
  <advance width="520" />
  <unicode hex="00F7" />
  <outline>
    <contour>
      <point x="260" y="42" type="curve" smooth="yes" />
      <point x="298" y="42" />
      <point x="326" y="72" />
      <point x="326" y="109" type="curve" smooth="yes" />
      <point x="326" y="145" />
      <point x="296" y="174" />
      <point x="260" y="174" type="curve" smooth="yes" />
      <point x="223" y="174" />
      <point x="195" y="145" />
      <point x="195" y="109" type="curve" smooth="yes" />
      <point x="195" y="72" />
      <point x="223" y="42" />
    </contour>
    <contour>
      <point x="47" y="215" type="line" />
      <point x="474" y="215" type="line" />
      <point x="474" y="328" type="line" />
      <point x="47" y="328" type="line" />
    </contour>
    <contour>
      <point x="260" y="370" type="curve" smooth="yes" />
      <point x="296" y="370" />
      <point x="326" y="400" />
      <point x="326" y="437" type="curve" smooth="yes" />
      <point x="326" y="473" />
      <point x="296" y="502" />
      <point x="260" y="502" type="curve" smooth="yes" />
      <point x="223" y="502" />
      <point x="195" y="473" />
      <point x="195" y="437" type="curve" smooth="yes" />
      <point x="195" y="400" />
      <point x="223" y="370" />
    </contour>
  </outline>
</glyph>
<glyph name="thorn" format="2">
  <advance width="518" />
  <unicode hex="00FE" />
  <outline>
    <contour>
      <point x="53" y="-154" type="line" />
      <point x="172" y="-154" type="line" />
      <point x="172" y="48" type="line" />
      <point x="202" y="12" />
      <point x="244" y="-7" />
      <point x="298" y="-7" type="curve" smooth="yes" />
      <point x="400" y="-7" />
      <point x="474" y="66" />
      <point x="474" y="211" type="curve" smooth="yes" />
      <point x="474" y="304" type="line" smooth="yes" />
      <point x="474" y="447" />
      <point x="401" y="519" />
      <point x="295" y="519" type="curve" smooth="yes" />
      <point x="245" y="519" />
      <point x="204" y="498" />
      <point x="175" y="459" type="curve" />
      <point x="175" y="680" type="line" />
      <point x="53" y="680" type="line" />
    </contour>
    <contour>
      <point x="174" y="213" type="curve" smooth="yes" />
      <point x="174" y="299" type="line" smooth="yes" />
      <point x="174" y="370" />
      <point x="209" y="411" />
      <point x="265" y="411" type="curve" smooth="yes" />
      <point x="319" y="411" />
      <point x="352" y="377" />
      <point x="352" y="299" type="curve" smooth="yes" />
      <point x="352" y="215" type="line" smooth="yes" />
      <point x="352" y="139" />
      <point x="323" y="102" />
      <point x="267" y="102" type="curve" smooth="yes" />
      <point x="209" y="102" />
      <point x="174" y="141" />
    </contour>
  </outline>
</glyph>
<glyph name="dcroat" format="2">
  <advance width="523" />
  <unicode hex="0111" />
  <outline>
    <component base="d" />
    <contour>
      <point x="235" y="559" type="line" />
      <point x="519" y="559" type="line" />
      <point x="519" y="629" type="line" />
      <point x="235" y="629" type="line" />
    </contour>
  </outline>
</glyph>
<glyph name="eogonek" format="2">
  <advance width="519" />
  <unicode hex="0119" />
  <outline>
    <component base="e" />
    <contour>
      <point x="401" y="-193" type="curve" />
      <point x="401" y="-102" type="line" />
      <point x="357" y="-101" />
      <point x="331" y="-104" />
      <point x="305" y="-77" type="curve" />
      <point x="401" y="40" type="line" />
      <point x="313" y="33" type="line" />
      <point x="199" y="-69" type="line" />
      <point x="210" y="-98" />
      <point x="223" y="-121" />
      <point x="244" y="-139" type="curve" smooth="yes" />
      <point x="283" y="-175" />
      <point x="336" y="-192" />
    </contour>
  </outline>
</glyph>
<glyph name="Hbar" format="2">
  <advance width="626" />
  <unicode hex="0126" />
  <outline>
    <component base="H" />
    <contour>
      <point x="11" y="495" type="line" />
      <point x="600" y="495" type="line" />
      <point x="600" y="609" type="line" />
      <point x="11" y="609" type="line" />
    </contour>
  </outline>
</glyph>
<glyph name="hbar" format="2">
  <advance width="538" />
  <unicode hex="0127" />
  <outline>
    <component base="h" />
    <contour>
      <point x="8" y="563" type="line" />
      <point x="286" y="563" type="line" />
      <point x="286" y="628" type="line" />
      <point x="8" y="628" type="line" />
    </contour>
  </outline>
</glyph>
<glyph name="ij" format="2">
  <advance width="483" />
  <unicode hex="0133" />
  <outline>
    <contour>
      <point x="253" y="-162" type="curve" smooth="yes" />
      <point x="388" y="-162" />
      <point x="430" y="-72" />
      <point x="430" y="39" type="curve" smooth="yes" />
      <point x="430" y="512" type="line" />
      <point x="309" y="512" type="line" />
      <point x="309" y="255" type="line" smooth="yes" />
      <point x="309" y="194" />
      <point x="305" y="156" />
      <point x="246" y="156" type="curve" smooth="yes" />
      <point x="189" y="156" />
      <point x="175" y="183" />
      <point x="175" y="256" type="curve" smooth="yes" />
      <point x="175" y="512" type="line" />
      <point x="53" y="512" type="line" />
      <point x="53" y="252" type="line" smooth="yes" />
      <point x="53" y="109" />
      <point x="126" y="47" />
      <point x="228" y="47" type="curve" smooth="yes" />
      <point x="279" y="47" />
      <point x="298" y="49" />
      <point x="311" y="92" type="curve" />
      <point x="311" y="32" type="line" smooth="yes" />
      <point x="311" y="-33" />
      <point x="300" y="-65" />
      <point x="242" y="-65" type="curve" smooth="yes" />
      <point x="196" y="-65" />
      <point x="185" y="-43" />
      <point x="178" y="-13" type="curve" />
      <point x="61" y="-13" type="line" />
      <point x="66" y="-106" />
      <point x="132" y="-162" />
    </contour>
    <contour>
      <point x="53" y="583" type="line" />
      <point x="175" y="583" type="line" />
      <point x="175" y="681" type="line" />
      <point x="53" y="681" type="line" />
    </contour>
    <contour>
      <point x="309" y="583" type="line" />
      <point x="430" y="583" type="line" />
      <point x="430" y="681" type="line" />
      <point x="309" y="681" type="line" />
    </contour>
  </outline>
</glyph>
<glyph name="lslash" format="2">
  <advance width="308" />
  <unicode hex="0142" />
  <outline>
    <component base="l" />
    <contour>
      <point x="-4" y="269" type="line" />
      <point x="268" y="396" type="line" />
      <point x="268" y="506" type="line" />
      <point x="-4" y="378" type="line" />
    </contour>
  </outline>
</glyph>
<glyph name="Eng" format="2">
  <advance width="637" />
  <unicode hex="014A" />
  <outline>
    <contour>
      <point x="363" y="-166" type="line" />
      <point x="418" y="-166" type="line" smooth="yes" />
      <point x="522" y="-166" />
      <point x="579" y="-121" />
      <point x="579" y="0" type="curve" />
      <point x="579" y="680" type="line" />
      <point x="450" y="680" type="line" />
      <point x="450" y="249" type="line" />
      <point x="188" y="680" type="line" />
      <point x="58" y="680" type="line" />
      <point x="58" y="0" type="line" />
      <point x="188" y="0" type="line" />
      <point x="188" y="429" type="line" />
      <point x="450" y="0" type="line" />
      <point x="450" y="-1" type="line" smooth="yes" />
      <point x="450" y="-48" />
      <point x="437" y="-61" />
      <point x="399" y="-61" type="curve" smooth="yes" />
      <point x="363" y="-61" type="line" />
    </contour>
  </outline>
</glyph>
<glyph name="eng" format="2">
  <advance width="522" />
  <unicode hex="014B" />
  <outline>
    <contour>
      <point x="252" y="-166" type="line" />
      <point x="311" y="-166" type="line" smooth="yes" />
      <point x="419" y="-166" />
      <point x="469" y="-150" />
      <point x="469" y="0" type="curve" smooth="yes" />
      <point x="469" y="331" type="line" smooth="yes" />
      <point x="469" y="446" />
      <point x="408" y="518" />
      <point x="299" y="518" type="curve" smooth="yes" />
      <point x="250" y="518" />
      <point x="204" y="499" />
      <point x="172" y="464" type="curve" />
      <point x="172" y="512" type="line" />
      <point x="53" y="512" type="line" />
      <point x="53" y="0" type="line" />
      <point x="175" y="0" type="line" />
      <point x="175" y="314" type="line" smooth="yes" />
      <point x="175" y="376" />
      <point x="211" y="410" />
      <point x="263" y="410" type="curve" smooth="yes" />
      <point x="315" y="410" />
      <point x="347" y="376" />
      <point x="347" y="315" type="curve" smooth="yes" />
      <point x="347" y="1" type="line" smooth="yes" />
      <point x="347" y="-46" />
      <point x="331" y="-61" />
      <point x="294" y="-61" type="curve" smooth="yes" />
      <point x="252" y="-61" type="line" />
    </contour>
  </outline>
</glyph>
<glyph name="OE" format="2">
  <advance width="885" />
  <unicode hex="0152" />
  <outline>
    <contour>
      <point x="292" y="-9" type="curve" smooth="yes" />
      <point x="348" y="-9" />
      <point x="395" y="5" />
      <point x="437" y="32" type="curve" />
      <point x="437" y="0" type="line" />
      <point x="851" y="0" type="line" />
      <point x="851" y="113" type="line" />
      <point x="557" y="113" type="line" />
      <point x="557" y="287" type="line" />
      <point x="806" y="287" type="line" />
      <point x="806" y="399" type="line" />
      <point x="557" y="399" type="line" />
      <point x="557" y="568" type="line" />
      <point x="851" y="568" type="line" />
      <point x="851" y="680" type="line" />
      <point x="437" y="680" type="line" />
      <point x="437" y="650" type="line" />
      <point x="396" y="676" />
      <point x="349" y="691" />
      <point x="294" y="691" type="curve" smooth="yes" />
      <point x="149" y="691" />
      <point x="50" y="604" />
      <point x="50" y="414" type="curve" smooth="yes" />
      <point x="50" y="267" type="line" smooth="yes" />
      <point x="50" y="76" />
      <point x="145" y="-9" />
    </contour>
    <contour>
      <point x="180" y="269" type="curve" smooth="yes" />
      <point x="180" y="407" type="line" smooth="yes" />
      <point x="180" y="526" />
      <point x="217" y="577" />
      <point x="305" y="577" type="curve" smooth="yes" />
      <point x="388" y="577" />
      <point x="428" y="524" />
      <point x="428" y="407" type="curve" smooth="yes" />
      <point x="428" y="269" type="line" smooth="yes" />
      <point x="428" y="158" />
      <point x="388" y="108" />
      <point x="305" y="108" type="curve" smooth="yes" />
      <point x="217" y="108" />
      <point x="180" y="156" />
    </contour>
  </outline>
</glyph>
<glyph name="tbar" format="2">
  <advance width="366" />
  <unicode hex="0167" />
  <outline>
    <component base="t" />
    <contour>
      <point x="25" y="254" type="line" />
      <point x="322" y="254" type="line" />
      <point x="322" y="342" type="line" />
      <point x="25" y="342" type="line" />
    </contour>
  </outline>
</glyph>
<glyph name="uogonek" format="2">
  <advance width="522" />
  <unicode hex="0173" />
  <outline>
    <component base="u" />
    <contour>
      <point x="386" y="-190" type="curve" />
      <point x="386" y="-105" type="line" />
      <point x="341" y="-104" />
      <point x="316" y="-107" />
      <point x="290" y="-82" type="curve" />
      <point x="386" y="22" type="line" />
      <point x="278" y="4" type="line" />
      <point x="184" y="-74" type="line" />
      <point x="194" y="-101" />
      <point x="208" y="-123" />
      <point x="229" y="-139" type="curve" smooth="yes" />
      <point x="267" y="-173" />
      <point x="320" y="-189" />
    </contour>
  </outline>
</glyph>
<glyph name="florin" format="2">
  <advance width="422" />
  <unicode hex="0192" />
  <outline>
    <contour>
      <point x="9" y="-154" type="line" />
      <point x="56" y="-154" type="line" smooth="yes" />
      <point x="164" y="-154" />
      <point x="215" y="-109" />
      <point x="233" y="11" type="curve" smooth="yes" />
      <point x="278" y="309" type="line" />
      <point x="396" y="309" type="line" />
      <point x="396" y="417" type="line" />
      <point x="293" y="417" type="line" />
      <point x="307" y="505" type="line" smooth="yes" />
      <point x="313" y="551" />
      <point x="335" y="568" />
      <point x="377" y="568" type="curve" smooth="yes" />
      <point x="414" y="568" type="line" />
      <point x="414" y="680" type="line" />
      <point x="361" y="680" type="line" smooth="yes" />
      <point x="254" y="680" />
      <point x="203" y="631" />
      <point x="186" y="518" type="curve" smooth="yes" />
      <point x="170" y="417" type="line" />
      <point x="75" y="417" type="line" />
      <point x="75" y="309" type="line" />
      <point x="155" y="309" type="line" />
      <point x="113" y="26" type="line" smooth="yes" />
      <point x="105" y="-23" />
      <point x="86" y="-38" />
      <point x="40" y="-38" type="curve" smooth="yes" />
      <point x="9" y="-38" type="line" />
    </contour>
  </outline>
</glyph>
<glyph name="lbar" format="2">
  <advance width="308" />
  <unicode hex="019A" />
  <outline>
    <component base="l" />
    <contour>
      <point x="9" y="293" type="line" />
      <point x="267" y="293" type="line" />
      <point x="267" y="407" type="line" />
      <point x="9" y="407" type="line" />
    </contour>
  </outline>
</glyph>
<glyph name="dotlessj" format="2">
  <advance width="237" />
  <unicode hex="0237" />
  <anchor x="120" y="512" name="top" />
  <outline>
    <contour>
      <point x="-38" y="-154" type="line" />
      <point x="21" y="-154" type="line" smooth="yes" />
      <point x="123" y="-154" />
      <point x="179" y="-99" />
      <point x="179" y="4" type="curve" smooth="yes" />
      <point x="179" y="512" type="line" />
      <point x="58" y="512" type="line" />
      <point x="58" y="12" type="line" smooth="yes" />
      <point x="58" y="-32" />
      <point x="42" y="-48" />
      <point x="5" y="-48" type="curve" smooth="yes" />
      <point x="-38" y="-48" type="line" />
    </contour>
  </outline>
</glyph>
<glyph name="ogonek" format="2">
  <advance width="492" />
  <unicode hex="02DB" />
  <outline>
    <contour>
      <point x="417" y="-216" type="curve" />
      <point x="417" y="-125" type="line" />
      <point x="372" y="-124" />
      <point x="346" y="-127" />
      <point x="320" y="-100" type="curve" />
      <point x="417" y="1" type="line" />
      <point x="417" y="13" type="line" />
      <point x="331" y="10" type="line" />
      <point x="215" y="-92" type="line" />
      <point x="225" y="-121" />
      <point x="239" y="-144" />
      <point x="260" y="-163" type="curve" smooth="yes" />
      <point x="298" y="-198" />
      <point x="351" y="-215" />
    </contour>
  </outline>
</glyph>
<glyph name="acutecomb" format="2">
  <unicode hex="0301" />
  <anchor x="0" y="512" name="_top" />
  <outline>
    <contour>
      <point x="-89" y="579" type="line" />
      <point x="16" y="579" type="line" />
      <point x="156" y="710" type="line" />
      <point x="18" y="710" type="line" />
    </contour>
  </outline>
</glyph>
<glyph name="tildecomb" format="2">
  <unicode hex="0303" />
  <anchor x="0" y="512" name="_top" />
  <outline>
    <contour>
      <point x="-143" y="573" type="line" />
      <point x="-108" y="604" />
      <point x="-93" y="612" />
      <point x="-66" y="612" type="curve" smooth="yes" />
      <point x="-50" y="612" />
      <point x="-30" y="605" />
      <point x="-10" y="594" type="curve" smooth="yes" />
      <point x="17" y="580" />
      <point x="35" y="574" />
      <point x="61" y="574" type="curve" smooth="yes" />
      <point x="91" y="574" />
      <point x="111" y="586" />
      <point x="142" y="617" type="curve" />
      <point x="142" y="706" type="line" />
      <point x="107" y="675" />
      <point x="93" y="667" />
      <point x="66" y="667" type="curve" smooth="yes" />
      <point x="49" y="667" />
      <point x="32" y="672" />
      <point x="10" y="684" type="curve" smooth="yes" />
      <point x="-18" y="699" />
      <point x="-34" y="704" />
      <point x="-62" y="704" type="curve" smooth="yes" />
      <point x="-92" y="704" />
      <point x="-112" y="693" />
      <point x="-143" y="662" type="curve" />
    </contour>
  </outline>
</glyph>
<glyph name="dieresiscmb" format="2">
  <unicode hex="0308" />
  <anchor x="0" y="512" name="_top" />
  <outline>
    <contour>
      <point x="-152" y="578" type="line" />
      <point x="-46" y="578" type="line" />
      <point x="-46" y="693" type="line" />
      <point x="-152" y="693" type="line" />
    </contour>
    <contour>
      <point x="45" y="578" type="line" />
      <point x="151" y="578" type="line" />
      <point x="151" y="693" type="line" />
      <point x="45" y="693" type="line" />
    </contour>
  </outline>
</glyph>
<glyph name="hungarumlautcmb" format="2">
  <unicode hex="030B" />
  <anchor x="0" y="499" name="_top" />
  <outline>
    <contour>
      <point x="-152" y="579" type="line" />
      <point x="-46" y="579" type="line" />
      <point x="89" y="710" type="line" />
      <point x="-45" y="710" type="line" />
    </contour>
    <contour>
      <point x="38" y="579" type="line" />
      <point x="144" y="579" type="line" />
      <point x="280" y="710" type="line" />
      <point x="145" y="710" type="line" />
    </contour>
  </outline>
</glyph>
<glyph name="commaturnedabovecmb" format="2">
  <unicode hex="0312" />
  <anchor x="0" y="499" name="_top" />
  <outline>
    <contour>
      <point x="-89" y="579" type="line" />
      <point x="48" y="579" type="line" />
      <point x="156" y="710" type="line" />
      <point x="50" y="710" type="line" />
    </contour>
  </outline>
</glyph>
<glyph name="commaaccentcomb" format="2">
  <unicode hex="0326" />
  <anchor x="0" y="0" name="_bottom" />
  <outline>
    <contour>
      <point x="-48" y="-166" type="line" />
      <point x="48" y="-88" type="line" />
      <point x="48" y="-29" type="line" />
      <point x="-48" y="-29" type="line" />
    </contour>
  </outline>
</glyph>
<glyph name="alpha" format="2">
  <advance width="630" />
  <unicode hex="03B1" />
  <outline>
    <contour>
      <point x="258" y="-7" type="curve" smooth="yes" />
      <point x="334" y="-7" />
      <point x="393" y="18" />
      <point x="429" y="67" type="curve" />
      <point x="466" y="33" />
      <point x="512" y="16" />
      <point x="570" y="16" type="curve" />
      <point x="570" y="119" type="line" />
      <point x="519" y="121" />
      <point x="486" y="154" />
      <point x="486" y="217" type="curve" smooth="yes" />
      <point x="486" y="294" type="line" smooth="yes" />
      <point x="486" y="358" />
      <point x="519" y="391" />
      <point x="570" y="393" type="curve" />
      <point x="570" y="496" type="line" />
      <point x="512" y="496" />
      <point x="466" y="479" />
      <point x="431" y="446" type="curve" smooth="yes" />
      <point x="397" y="491" />
      <point x="334" y="519" />
      <point x="258" y="519" type="curve" smooth="yes" />
      <point x="125" y="519" />
      <point x="44" y="448" />
      <point x="44" y="301" type="curve" smooth="yes" />
      <point x="44" y="213" type="line" smooth="yes" />
      <point x="44" y="64" />
      <point x="125" y="-7" />
    </contour>
    <contour>
      <point x="165" y="214" type="curve" smooth="yes" />
      <point x="165" y="299" type="line" smooth="yes" />
      <point x="165" y="372" />
      <point x="196" y="411" />
      <point x="258" y="411" type="curve" smooth="yes" />
      <point x="317" y="411" />
      <point x="355" y="372" />
      <point x="355" y="299" type="curve" smooth="yes" />
      <point x="355" y="214" type="line" smooth="yes" />
      <point x="355" y="139" />
      <point x="317" y="102" />
      <point x="258" y="102" type="curve" smooth="yes" />
      <point x="196" y="102" />
      <point x="165" y="139" />
    </contour>
  </outline>
</glyph>
<glyph name="Djecyr" format="2">
  <advance width="686" />
  <unicode hex="0402" />
  <anchor x="220" y="0" name="b.cedilla" />
  <anchor x="250" y="-83" name="bottom" />
  <anchor x="226" y="746" name="top" />
  <outline>
    <contour>
      <point x="185" y="0" type="line" />
      <point x="316" y="0" type="line" />
      <point x="316" y="309" type="line" />
      <point x="408" y="309" type="line" smooth="yes" />
      <point x="471" y="309" />
      <point x="510" y="274" />
      <point x="510" y="215" type="curve" smooth="yes" />
      <point x="510" y="149" />
      <point x="473" y="113" />
      <point x="408" y="113" type="curve" smooth="yes" />
      <point x="382" y="113" type="line" />
      <point x="382" y="0" type="line" />
      <point x="412" y="0" type="line" smooth="yes" />
      <point x="553" y="0" />
      <point x="639" y="81" />
      <point x="639" y="215" type="curve" smooth="yes" />
      <point x="639" y="342" />
      <point x="551" y="422" />
      <point x="411" y="422" type="curve" smooth="yes" />
      <point x="316" y="422" type="line" />
      <point x="316" y="568" type="line" />
      <point x="494" y="568" type="line" />
      <point x="494" y="680" type="line" />
      <point x="6" y="680" type="line" />
      <point x="6" y="568" type="line" />
      <point x="185" y="568" type="line" />
    </contour>
  </outline>
</glyph>
<glyph name="Eukrcyr" format="2">
  <advance width="603" />
  <unicode hex="0404" />
  <guideline x="304" y="0" angle="90" name="h1" />
  <anchor x="304" y="746" name="top" />
  <outline>
    <contour>
      <point x="306" y="-9" type="curve" smooth="yes" />
      <point x="456" y="-9" />
      <point x="555" y="68" />
      <point x="555" y="219" type="curve" smooth="yes" />
      <point x="555" y="226" type="line" />
      <point x="428" y="226" type="line" />
      <point x="428" y="222" type="line" smooth="yes" />
      <point x="428" y="148" />
      <point x="386" y="108" />
      <point x="309" y="108" type="curve" smooth="yes" />
      <point x="209" y="108" />
      <point x="180" y="179" />
      <point x="180" y="269" type="curve" smooth="yes" />
      <point x="180" y="287" type="line" />
      <point x="387" y="287" type="line" />
      <point x="387" y="400" type="line" />
      <point x="180" y="400" type="line" />
      <point x="180" y="410" type="line" smooth="yes" />
      <point x="181" y="500" />
      <point x="205" y="577" />
      <point x="307" y="577" type="curve" smooth="yes" />
      <point x="383" y="577" />
      <point x="428" y="534" />
      <point x="428" y="463" type="curve" smooth="yes" />
      <point x="428" y="456" type="line" />
      <point x="557" y="456" type="line" />
      <point x="557" y="464" type="line" smooth="yes" />
      <point x="557" y="610" />
      <point x="458" y="691" />
      <point x="308" y="691" type="curve" smooth="yes" />
      <point x="129" y="691" />
      <point x="50" y="586" />
      <point x="50" y="414" type="curve" smooth="yes" />
      <point x="50" y="267" type="line" smooth="yes" />
      <point x="50" y="96" />
      <point x="128" y="-9" />
    </contour>
  </outline>
</glyph>
<glyph name="Dzhecyr" format="2">
  <advance width="589" />
  <unicode hex="040F" />
  <outline>
    <contour>
      <point x="230" y="-164" type="line" />
      <point x="359" y="-164" type="line" />
      <point x="359" y="0" type="line" />
      <point x="531" y="0" type="line" />
      <point x="531" y="680" type="line" />
      <point x="402" y="680" type="line" />
      <point x="402" y="113" type="line" />
      <point x="187" y="113" type="line" />
      <point x="187" y="680" type="line" />
      <point x="58" y="680" type="line" />
      <point x="58" y="0" type="line" />
      <point x="230" y="0" type="line" />
    </contour>
  </outline>
</glyph>
<glyph name="Gecyr" format="2">
  <advance width="506" />
  <unicode hex="0413" />
  <guideline x="295" y="0" angle="90" name="h1" />
  <anchor x="295" y="746" name="top" />
  <outline>
    <contour>
      <point x="58" y="0" type="line" />
      <point x="188" y="0" type="line" />
      <point x="188" y="568" type="line" />
      <point x="500" y="568" type="line" />
      <point x="500" y="680" type="line" />
      <point x="58" y="680" type="line" />
    </contour>
  </outline>
</glyph>
<glyph name="Decyr" format="2">
  <advance width="686" />
  <unicode hex="0414" />
  <outline>
    <contour>
      <point x="11" y="-164" type="line" />
      <point x="139" y="-164" type="line" />
      <point x="139" y="0" type="line" />
      <point x="546" y="0" type="line" />
      <point x="546" y="-164" type="line" />
      <point x="676" y="-164" type="line" />
      <point x="676" y="113" type="line" />
      <point x="605" y="113" type="line" />
      <point x="605" y="680" type="line" />
      <point x="174" y="680" type="line" />
      <point x="158" y="474" type="line" smooth="yes" />
      <point x="139" y="225" />
      <point x="92" y="123" />
      <point x="43" y="113" type="curve" />
      <point x="11" y="113" type="line" />
    </contour>
    <contour>
      <point x="200" y="113" type="line" />
      <point x="250" y="200" />
      <point x="276" y="325" />
      <point x="286" y="449" type="curve" smooth="yes" />
      <point x="294" y="568" type="line" />
      <point x="475" y="568" type="line" />
      <point x="475" y="113" type="line" />
    </contour>
  </outline>
</glyph>
<glyph name="Zhecyr" format="2">
  <advance width="990" />
  <unicode hex="0416" />
  <guideline x="239" y="0" angle="90" name="vertical" />
  <guideline x="0" y="680" angle="0" name="horizontal" />
  <guideline x="839" y="0" angle="90" name="vertical" />
  <guideline x="0" y="680" angle="0" name="horizontal" />
  <anchor x="839" y="680" name="top" />
  <outline>
    <contour>
      <point x="10" y="0" type="line" />
      <point x="161" y="0" type="line" />
      <point x="360" y="288" type="line" />
      <point x="430" y="288" type="line" />
      <point x="430" y="0" type="line" />
      <point x="560" y="0" type="line" />
      <point x="560" y="288" type="line" />
      <point x="630" y="288" type="line" />
      <point x="829" y="0" type="line" />
      <point x="980" y="0" type="line" />
      <point x="720" y="379" type="line" />
      <point x="963" y="680" type="line" />
      <point x="805" y="680" type="line" />
      <point x="599" y="400" type="line" />
      <point x="560" y="400" type="line" />
      <point x="560" y="680" type="line" />
      <point x="430" y="680" type="line" />
      <point x="430" y="400" type="line" />
      <point x="391" y="400" type="line" />
      <point x="185" y="680" type="line" />
      <point x="27" y="680" type="line" />
      <point x="269" y="379" type="line" />
    </contour>
  </outline>
</glyph>
<glyph name="Zecyr" format="2">
  <advance width="598" />
  <unicode hex="0417" />
  <outline>
    <contour>
      <point x="314" y="-9" type="curve" smooth="yes" />
      <point x="444" y="-9" />
      <point x="550" y="63" />
      <point x="550" y="192" type="curve" smooth="yes" />
      <point x="550" y="205" type="line" smooth="yes" />
      <point x="550" y="268" />
      <point x="516" y="324" />
      <point x="454" y="350" type="curve" />
      <point x="507" y="376" />
      <point x="542" y="429" />
      <point x="542" y="487" type="curve" smooth="yes" />
      <point x="542" y="496" type="line" smooth="yes" />
      <point x="542" y="622" />
      <point x="429" y="691" />
      <point x="302" y="691" type="curve" smooth="yes" />
      <point x="156" y="691" />
      <point x="59" y="618" />
      <point x="59" y="498" type="curve" smooth="yes" />
      <point x="59" y="492" type="line" />
      <point x="189" y="492" type="line" />
      <point x="189" y="497" type="line" smooth="yes" />
      <point x="189" y="547" />
      <point x="236" y="578" />
      <point x="300" y="578" type="curve" smooth="yes" />
      <point x="367" y="578" />
      <point x="412" y="543" />
      <point x="412" y="489" type="curve" smooth="yes" />
      <point x="412" y="482" type="line" smooth="yes" />
      <point x="412" y="430" />
      <point x="372" y="402" />
      <point x="318" y="402" type="curve" smooth="yes" />
      <point x="234" y="402" type="line" />
      <point x="234" y="290" type="line" />
      <point x="326" y="290" type="line" smooth="yes" />
      <point x="385" y="290" />
      <point x="421" y="261" />
      <point x="421" y="203" type="curve" smooth="yes" />
      <point x="421" y="194" type="line" smooth="yes" />
      <point x="421" y="138" />
      <point x="370" y="104" />
      <point x="312" y="104" type="curve" smooth="yes" />
      <point x="239" y="104" />
      <point x="189" y="138" />
      <point x="189" y="184" type="curve" smooth="yes" />
      <point x="189" y="190" type="line" />
      <point x="59" y="190" type="line" />
      <point x="59" y="182" type="line" smooth="yes" />
      <point x="59" y="69" />
      <point x="163" y="-9" />
    </contour>
  </outline>
</glyph>
<glyph name="Icyr" format="2">
  <advance width="637" />
  <unicode hex="0418" />
  <guideline x="310" y="0" angle="90" name="h1" />
  <anchor x="310" y="746" name="top" />
  <outline>
    <contour>
      <point x="58" y="0" type="line" />
      <point x="187" y="0" type="line" />
      <point x="449" y="429" type="line" />
      <point x="449" y="0" type="line" />
      <point x="579" y="0" type="line" />
      <point x="579" y="680" type="line" />
      <point x="449" y="680" type="line" />
      <point x="187" y="249" type="line" />
      <point x="187" y="680" type="line" />
      <point x="58" y="680" type="line" />
    </contour>
  </outline>
</glyph>
<glyph name="Kacyr" format="2">
  <advance width="614" />
  <unicode hex="041A" />
  <guideline x="66" y="544" angle="0" name="horizontal" />
  <guideline x="291" y="0" angle="90" name="h1" />
  <anchor x="300" y="746" name="top" />
  <outline>
    <contour>
      <point x="58" y="0" type="line" />
      <point x="188" y="0" type="line" />
      <point x="188" y="288" type="line" />
      <point x="258" y="288" type="line" />
      <point x="457" y="0" type="line" />
      <point x="608" y="0" type="line" />
      <point x="348" y="379" type="line" />
      <point x="591" y="680" type="line" />
      <point x="433" y="680" type="line" />
      <point x="227" y="400" type="line" />
      <point x="188" y="400" type="line" />
      <point x="188" y="680" type="line" />
      <point x="58" y="680" type="line" />
    </contour>
  </outline>
</glyph>
<glyph name="Elcyr" format="2">
  <advance width="609" />
  <unicode hex="041B" />
  <outline>
    <contour>
      <point x="20" y="-6" type="line" />
      <point x="144" y="-6" />
      <point x="205" y="68" />
      <point x="216" y="217" type="curve" smooth="yes" />
      <point x="241" y="568" type="line" />
      <point x="422" y="568" type="line" />
      <point x="422" y="0" type="line" />
      <point x="551" y="0" type="line" />
      <point x="551" y="680" type="line" />
      <point x="121" y="680" type="line" />
      <point x="88" y="253" type="line" smooth="yes" />
      <point x="80" y="153" />
      <point x="64" y="113" />
      <point x="20" y="113" type="curve" />
    </contour>
  </outline>
</glyph>
<glyph name="Pecyr" format="2">
  <advance width="604" />
  <unicode hex="041F" />
  <outline>
    <contour>
      <point x="58" y="0" type="line" />
      <point x="188" y="0" type="line" />
      <point x="188" y="568" type="line" />
      <point x="417" y="568" type="line" />
      <point x="417" y="0" type="line" />
      <point x="546" y="0" type="line" />
      <point x="546" y="680" type="line" />
      <point x="58" y="680" type="line" />
    </contour>
  </outline>
</glyph>
<glyph name="Shacyr" format="2">
  <advance width="797" />
  <unicode hex="0428" />
  <guideline x="58" y="0" angle="90" />
  <guideline x="187" y="0" angle="90" />
  <guideline x="334" y="0" angle="90" />
  <guideline x="463" y="0" angle="90" />
  <guideline x="611" y="0" angle="90" />
  <guideline x="740" y="0" angle="90" />
  <guideline x="0" y="680" angle="0" />
  <anchor x="651" y="669" name="top" />
  <outline>
    <contour>
      <point x="58" y="0" type="line" />
      <point x="740" y="0" type="line" />
      <point x="740" y="680" type="line" />
      <point x="611" y="680" type="line" />
      <point x="611" y="113" type="line" />
      <point x="463" y="113" type="line" />
      <point x="463" y="680" type="line" />
      <point x="334" y="680" type="line" />
      <point x="334" y="113" type="line" />
      <point x="187" y="113" type="line" />
      <point x="187" y="680" type="line" />
      <point x="58" y="680" type="line" />
    </contour>
  </outline>
</glyph>
<glyph name="Hardcyr" format="2">
  <advance width="679" />
  <unicode hex="042A" />
  <outline>
    <contour>
      <point x="142" y="0" type="line" />
      <point x="405" y="0" type="line" smooth="yes" />
      <point x="546" y="0" />
      <point x="631" y="81" />
      <point x="631" y="215" type="curve" smooth="yes" />
      <point x="631" y="342" />
      <point x="544" y="422" />
      <point x="404" y="422" type="curve" smooth="yes" />
      <point x="272" y="422" type="line" />
      <point x="272" y="680" type="line" />
      <point x="0" y="680" type="line" />
      <point x="0" y="568" type="line" />
      <point x="142" y="568" type="line" />
    </contour>
    <contour>
      <point x="272" y="113" type="line" />
      <point x="272" y="309" type="line" />
      <point x="401" y="309" type="line" smooth="yes" />
      <point x="465" y="309" />
      <point x="502" y="274" />
      <point x="502" y="215" type="curve" smooth="yes" />
      <point x="502" y="149" />
      <point x="467" y="113" />
      <point x="401" y="113" type="curve" smooth="yes" />
    </contour>
  </outline>
</glyph>
<glyph name="Softcyr" format="2">
  <advance width="594" />
  <unicode hex="042C" />
  <guideline x="278" y="0" angle="90" name="h1" />
  <guideline x="278" y="0" angle="90" name="h1" />
  <anchor x="278" y="746" name="top" />
  <outline>
    <contour>
      <point x="58" y="0" type="line" />
      <point x="320" y="0" type="line" smooth="yes" />
      <point x="462" y="0" />
      <point x="546" y="81" />
      <point x="546" y="215" type="curve" smooth="yes" />
      <point x="546" y="342" />
      <point x="460" y="422" />
      <point x="319" y="422" type="curve" smooth="yes" />
      <point x="188" y="422" type="line" />
      <point x="188" y="680" type="line" />
      <point x="58" y="680" type="line" />
    </contour>
    <contour>
      <point x="188" y="113" type="line" />
      <point x="188" y="309" type="line" />
      <point x="316" y="309" type="line" smooth="yes" />
      <point x="380" y="309" />
      <point x="417" y="274" />
      <point x="417" y="215" type="curve" smooth="yes" />
      <point x="417" y="149" />
      <point x="382" y="113" />
      <point x="316" y="113" type="curve" smooth="yes" />
    </contour>
  </outline>
</glyph>
<glyph name="Yucyr" format="2">
  <advance width="819" />
  <unicode hex="042E" />
  <guideline x="456" y="0" angle="90" name="h1" />
  <anchor x="456" y="746" name="top" />
  <outline>
    <component base="O" xOffset="214" />
    <contour>
      <point x="58" y="0" type="line" />
      <point x="188" y="0" type="line" />
      <point x="188" y="288" type="line" />
      <point x="329" y="288" type="line" />
      <point x="329" y="400" type="line" />
      <point x="188" y="400" type="line" />
      <point x="188" y="680" type="line" />
      <point x="58" y="680" type="line" />
    </contour>
  </outline>
</glyph>
<glyph name="vecyr" format="2">
  <advance width="520" />
  <unicode hex="0432" />
  <outline>
    <contour>
      <point x="53" y="0" type="line" />
      <point x="306" y="0" type="line" smooth="yes" />
      <point x="406" y="0" />
      <point x="467" y="58" />
      <point x="467" y="152" type="curve" smooth="yes" />
      <point x="467" y="207" />
      <point x="442" y="257" />
      <point x="384" y="278" type="curve" />
      <point x="423" y="299" />
      <point x="446" y="343" />
      <point x="446" y="391" type="curve" smooth="yes" />
      <point x="446" y="462" />
      <point x="392" y="512" />
      <point x="312" y="512" type="curve" smooth="yes" />
      <point x="53" y="512" type="line" />
    </contour>
    <contour>
      <point x="174" y="107" type="line" />
      <point x="174" y="207" type="line" />
      <point x="301" y="207" type="line" smooth="yes" />
      <point x="325" y="207" />
      <point x="346" y="184" />
      <point x="346" y="159" type="curve" smooth="yes" />
      <point x="346" y="134" />
      <point x="326" y="107" />
      <point x="301" y="107" type="curve" smooth="yes" />
    </contour>
    <contour>
      <point x="174" y="309" type="line" />
      <point x="174" y="405" type="line" />
      <point x="280" y="405" type="line" smooth="yes" />
      <point x="305" y="405" />
      <point x="325" y="382" />
      <point x="325" y="359" type="curve" smooth="yes" />
      <point x="325" y="336" />
      <point x="305" y="309" />
      <point x="280" y="309" type="curve" smooth="yes" />
    </contour>
  </outline>
</glyph>
<glyph name="decyr" format="2">
  <advance width="594" />
  <unicode hex="0434" />
  <guideline x="249" y="355" angle="84.7422" />
  <guideline x="143" y="512" angle="264.33" />
  <outline>
    <contour>
      <point x="20" y="-164" type="line" />
      <point x="141" y="-164" type="line" />
      <point x="141" y="0" type="line" />
      <point x="454" y="0" type="line" />
      <point x="454" y="-164" type="line" />
      <point x="575" y="-164" type="line" />
      <point x="575" y="107" type="line" />
      <point x="505" y="107" type="line" />
      <point x="505" y="512" type="line" />
      <point x="145" y="512" type="line" />
      <point x="117" y="230" type="line" smooth="yes" />
      <point x="112" y="164" />
      <point x="88" y="107" />
      <point x="52" y="107" type="curve" />
      <point x="20" y="107" type="line" />
    </contour>
    <contour>
      <point x="209" y="107" type="line" />
      <point x="225" y="138" />
      <point x="236" y="175" />
      <point x="239" y="212" type="curve" smooth="yes" />
      <point x="258" y="423" type="line" />
      <point x="384" y="423" type="line" />
      <point x="384" y="107" type="line" />
    </contour>
  </outline>
</glyph>
<glyph name="zhecyr" format="2">
  <advance width="808" />
  <unicode hex="0436" />
  <guideline x="111" y="0" angle="90" name="vertical" />
  <guideline x="0" y="680" angle="0" name="horizontal" />
  <guideline x="622" y="0" angle="90" name="vertical" />
  <guideline x="0" y="680" angle="0" name="horizontal" />
  <anchor x="622" y="680" name="top" />
  <outline>
    <component base="kacyr" xOffset="290" />
    <contour>
      <point x="9" y="0" type="line" />
      <point x="157" y="0" type="line" />
      <point x="279" y="215" type="line" />
      <point x="387" y="215" type="line" />
      <point x="387" y="321" type="line" />
      <point x="315" y="321" type="line" />
      <point x="178" y="512" type="line" />
      <point x="31" y="512" type="line" />
      <point x="186" y="307" type="line" />
    </contour>
  </outline>
</glyph>
<glyph name="zecyr" format="2">
  <advance width="515" />
  <unicode hex="0437" />
  <outline>
    <contour>
      <point x="259" y="-7" type="curve" smooth="yes" />
      <point x="383" y="-7" />
      <point x="467" y="58" />
      <point x="467" y="152" type="curve" smooth="yes" />
      <point x="467" y="159" type="line" smooth="yes" />
      <point x="467" y="211" />
      <point x="438" y="251" />
      <point x="397" y="272" type="curve" />
      <point x="435" y="290" />
      <point x="457" y="329" />
      <point x="457" y="371" type="curve" smooth="yes" />
      <point x="457" y="376" type="line" smooth="yes" />
      <point x="457" y="465" />
      <point x="384" y="519" />
      <point x="264" y="519" type="curve" smooth="yes" />
      <point x="137" y="519" />
      <point x="44" y="449" />
      <point x="44" y="346" type="curve" smooth="yes" />
      <point x="44" y="338" type="line" />
      <point x="168" y="338" type="line" />
      <point x="168" y="342" type="line" smooth="yes" />
      <point x="168" y="383" />
      <point x="202" y="411" />
      <point x="258" y="411" type="curve" smooth="yes" />
      <point x="306" y="411" />
      <point x="335" y="390" />
      <point x="335" y="363" type="curve" smooth="yes" />
      <point x="335" y="358" type="line" smooth="yes" />
      <point x="335" y="323" />
      <point x="313" y="308" />
      <point x="269" y="308" type="curve" smooth="yes" />
      <point x="213" y="308" type="line" />
      <point x="213" y="217" type="line" />
      <point x="280" y="217" type="line" smooth="yes" />
      <point x="320" y="217" />
      <point x="343" y="198" />
      <point x="343" y="163" type="curve" smooth="yes" />
      <point x="343" y="158" type="line" smooth="yes" />
      <point x="343" y="122" />
      <point x="312" y="102" />
      <point x="263" y="102" type="curve" smooth="yes" />
      <point x="206" y="102" />
      <point x="168" y="126" />
      <point x="168" y="161" type="curve" smooth="yes" />
      <point x="168" y="166" type="line" />
      <point x="44" y="166" type="line" />
      <point x="44" y="159" type="line" smooth="yes" />
      <point x="44" y="59" />
      <point x="129" y="-7" />
    </contour>
  </outline>
</glyph>
<glyph name="icyr" format="2">
  <advance width="564" />
  <unicode hex="0438" />
  <guideline x="277" y="0" angle="90" name="h1" />
  <anchor x="277" y="579" name="top" />
  <outline>
    <contour>
      <point x="53" y="0" type="line" />
      <point x="184" y="0" type="line" />
      <point x="390" y="341" type="line" />
      <point x="390" y="0" type="line" />
      <point x="511" y="0" type="line" />
      <point x="511" y="512" type="line" />
      <point x="380" y="512" type="line" />
      <point x="174" y="171" type="line" />
      <point x="174" y="512" type="line" />
      <point x="53" y="512" type="line" />
    </contour>
  </outline>
</glyph>
<glyph name="elcyr" format="2">
  <advance width="518" />
  <unicode hex="043B" />
  <outline>
    <contour>
      <point x="11" y="0" type="line" />
      <point x="126" y="0" />
      <point x="184" y="51" />
      <point x="194" y="164" type="curve" smooth="yes" />
      <point x="217" y="423" type="line" />
      <point x="343" y="423" type="line" />
      <point x="343" y="0" type="line" />
      <point x="465" y="0" type="line" />
      <point x="465" y="512" type="line" />
      <point x="104" y="512" type="line" />
      <point x="74" y="196" type="line" smooth="yes" />
      <point x="68" y="140" />
      <point x="44" y="108" />
      <point x="11" y="108" type="curve" />
    </contour>
  </outline>
</glyph>
<glyph name="emcyr" format="2">
  <advance width="705" />
  <unicode hex="043C" />
  <outline>
    <contour>
      <point x="53" y="0" type="line" />
      <point x="174" y="0" type="line" />
      <point x="174" y="343" type="line" />
      <point x="319" y="73" type="line" />
      <point x="387" y="73" type="line" />
      <point x="531" y="343" type="line" />
      <point x="531" y="0" type="line" />
      <point x="652" y="0" type="line" />
      <point x="652" y="512" type="line" />
      <point x="498" y="512" type="line" />
      <point x="352" y="242" type="line" />
      <point x="207" y="512" type="line" />
      <point x="53" y="512" type="line" />
    </contour>
  </outline>
</glyph>
<glyph name="encyr" format="2">
  <advance width="520" />
  <unicode hex="043D" />
  <outline>
    <contour>
      <point x="53" y="0" type="line" />
      <point x="174" y="0" type="line" />
      <point x="174" y="220" type="line" />
      <point x="346" y="220" type="line" />
      <point x="346" y="0" type="line" />
      <point x="467" y="0" type="line" />
      <point x="467" y="512" type="line" />
      <point x="346" y="512" type="line" />
      <point x="346" y="327" type="line" />
      <point x="174" y="327" type="line" />
      <point x="174" y="512" type="line" />
      <point x="53" y="512" type="line" />
    </contour>
  </outline>
</glyph>
<glyph name="pecyr" format="2">
  <advance width="512" />
  <unicode hex="043F" />
  <outline>
    <contour>
      <point x="53" y="0" type="line" />
      <point x="174" y="0" type="line" />
      <point x="174" y="405" type="line" />
      <point x="338" y="405" type="line" />
      <point x="338" y="0" type="line" />
      <point x="459" y="0" type="line" />
      <point x="459" y="512" type="line" />
      <point x="53" y="512" type="line" />
    </contour>
  </outline>
</glyph>
<glyph name="tecyr" format="2">
  <advance width="408" />
  <unicode hex="0442" />
  <guideline x="215" y="0" angle="90" name="h1" />
  <anchor x="204" y="579" name="top" />
  <outline>
    <contour>
      <point x="143" y="0" type="line" />
      <point x="265" y="0" type="line" />
      <point x="265" y="405" type="line" />
      <point x="402" y="405" type="line" />
      <point x="402" y="512" type="line" />
      <point x="6" y="512" type="line" />
      <point x="6" y="405" type="line" />
      <point x="143" y="405" type="line" />
    </contour>
  </outline>
</glyph>
<glyph name="efcyr" format="2">
  <advance width="811" />
  <unicode hex="0444" />
  <guideline x="0" y="512" angle="0" name="horizontal" />
  <guideline x="0" y="680" angle="0" name="horizontal" />
  <guideline x="0" y="512" angle="0" name="horizontal" />
  <outline>
    <contour>
      <point x="343" y="-154" type="line" />
      <point x="468" y="-154" type="line" />
      <point x="468" y="47" type="line" />
      <point x="499" y="10" />
      <point x="543" y="-7" />
      <point x="592" y="-7" type="curve" smooth="yes" />
      <point x="714" y="-7" />
      <point x="767" y="95" />
      <point x="767" y="211" type="curve" smooth="yes" />
      <point x="767" y="304" type="line" smooth="yes" />
      <point x="767" y="422" />
      <point x="714" y="519" />
      <point x="589" y="519" type="curve" smooth="yes" />
      <point x="538" y="519" />
      <point x="496" y="497" />
      <point x="466" y="459" type="curve" />
      <point x="466" y="680" type="line" />
      <point x="346" y="680" type="line" />
      <point x="346" y="459" type="line" />
      <point x="316" y="497" />
      <point x="273" y="519" />
      <point x="223" y="519" type="curve" smooth="yes" />
      <point x="98" y="519" />
      <point x="44" y="422" />
      <point x="44" y="304" type="curve" smooth="yes" />
      <point x="44" y="211" type="line" smooth="yes" />
      <point x="44" y="95" />
      <point x="97" y="-7" />
      <point x="220" y="-7" type="curve" smooth="yes" />
      <point x="269" y="-7" />
      <point x="313" y="10" />
      <point x="343" y="47" type="curve" />
    </contour>
    <contour>
      <point x="166" y="215" type="curve" smooth="yes" />
      <point x="166" y="299" type="line" smooth="yes" />
      <point x="166" y="361" />
      <point x="187" y="411" />
      <point x="254" y="411" type="curve" smooth="yes" />
      <point x="317" y="411" />
      <point x="348" y="358" />
      <point x="348" y="299" type="curve" smooth="yes" />
      <point x="348" y="213" type="line" smooth="yes" />
      <point x="348" y="152" />
      <point x="316" y="102" />
      <point x="251" y="102" type="curve" smooth="yes" />
      <point x="186" y="102" />
      <point x="166" y="154" />
    </contour>
    <contour>
      <point x="464" y="213" type="curve" smooth="yes" />
      <point x="464" y="299" type="line" smooth="yes" />
      <point x="464" y="358" />
      <point x="493" y="411" />
      <point x="558" y="411" type="curve" smooth="yes" />
      <point x="624" y="411" />
      <point x="644" y="361" />
      <point x="644" y="299" type="curve" smooth="yes" />
      <point x="644" y="215" type="line" smooth="yes" />
      <point x="644" y="154" />
      <point x="626" y="102" />
      <point x="560" y="102" type="curve" smooth="yes" />
      <point x="494" y="102" />
      <point x="464" y="152" />
    </contour>
  </outline>
</glyph>
<glyph name="tsecyr" format="2">
  <advance width="547" />
  <unicode hex="0446" />
  <outline>
    <contour>
      <point x="417" y="-164" type="line" />
      <point x="538" y="-164" type="line" />
      <point x="538" y="107" type="line" />
      <point x="467" y="107" type="line" />
      <point x="467" y="512" type="line" />
      <point x="346" y="512" type="line" />
      <point x="346" y="107" type="line" />
      <point x="174" y="107" type="line" />
      <point x="174" y="512" type="line" />
      <point x="53" y="512" type="line" />
      <point x="53" y="0" type="line" />
      <point x="417" y="0" type="line" />
    </contour>
  </outline>
</glyph>
<glyph name="checyr" format="2">
  <advance width="522" />
  <unicode hex="0447" />
  <outline>
    <contour>
      <point x="347" y="0" type="line" />
      <point x="469" y="0" type="line" />
      <point x="469" y="512" type="line" />
      <point x="347" y="512" type="line" />
      <point x="347" y="258" type="line" />
      <point x="326" y="246" />
      <point x="301" y="239" />
      <point x="261" y="239" type="curve" smooth="yes" />
      <point x="203" y="239" />
      <point x="175" y="278" />
      <point x="175" y="335" type="curve" smooth="yes" />
      <point x="175" y="512" type="line" />
      <point x="53" y="512" type="line" />
      <point x="53" y="322" type="line" smooth="yes" />
      <point x="53" y="210" />
      <point x="111" y="130" />
      <point x="225" y="130" type="curve" smooth="yes" />
      <point x="271" y="130" />
      <point x="316" y="139" />
      <point x="347" y="155" type="curve" />
    </contour>
  </outline>
</glyph>
<glyph name="shacyr" format="2">
  <advance width="765" />
  <unicode hex="0448" />
  <outline>
    <contour>
      <point x="53" y="0" type="line" />
      <point x="712" y="0" type="line" />
      <point x="712" y="512" type="line" />
      <point x="591" y="512" type="line" />
      <point x="591" y="107" type="line" />
      <point x="443" y="107" type="line" />
      <point x="443" y="512" type="line" />
      <point x="322" y="512" type="line" />
      <point x="322" y="107" type="line" />
      <point x="174" y="107" type="line" />
      <point x="174" y="512" type="line" />
      <point x="53" y="512" type="line" />
    </contour>
  </outline>
</glyph>
<glyph name="shchacyr" format="2">
  <advance width="793" />
  <unicode hex="0449" />
  <outline>
    <contour>
      <point x="662" y="-164" type="line" />
      <point x="783" y="-164" type="line" />
      <point x="783" y="107" type="line" />
      <point x="712" y="107" type="line" />
      <point x="712" y="512" type="line" />
      <point x="591" y="512" type="line" />
      <point x="591" y="107" type="line" />
      <point x="443" y="107" type="line" />
      <point x="443" y="512" type="line" />
      <point x="322" y="512" type="line" />
      <point x="322" y="107" type="line" />
      <point x="174" y="107" type="line" />
      <point x="174" y="512" type="line" />
      <point x="53" y="512" type="line" />
      <point x="53" y="0" type="line" />
      <point x="662" y="0" type="line" />
    </contour>
  </outline>
</glyph>
<glyph name="ereversedcyr" format="2">
  <advance width="508" />
  <unicode hex="044D" />
  <guideline x="56" y="410" angle="0" name="horizontal" />
  <guideline x="252" y="0" angle="90" name="h1" />
  <anchor x="257" y="579" name="top" />
  <outline>
    <contour>
      <point x="250" y="-7" type="curve" smooth="yes" />
      <point x="383" y="-7" />
      <point x="464" y="64" />
      <point x="464" y="213" type="curve" smooth="yes" />
      <point x="464" y="301" type="line" smooth="yes" />
      <point x="464" y="448" />
      <point x="383" y="519" />
      <point x="250" y="519" type="curve" smooth="yes" />
      <point x="120" y="519" />
      <point x="44" y="449" />
      <point x="44" y="335" type="curve" smooth="yes" />
      <point x="44" y="326" type="line" />
      <point x="162" y="326" type="line" />
      <point x="162" y="332" type="line" smooth="yes" />
      <point x="162" y="380" />
      <point x="193" y="411" />
      <point x="248" y="411" type="curve" smooth="yes" />
      <point x="302" y="411" />
      <point x="333" y="383" />
      <point x="341" y="328" type="curve" />
      <point x="341" y="327" type="line" />
      <point x="227" y="327" type="line" />
      <point x="227" y="220" type="line" />
      <point x="342" y="220" type="line" />
      <point x="342" y="212" type="line" smooth="yes" />
      <point x="341" y="133" />
      <point x="308" y="102" />
      <point x="248" y="102" type="curve" smooth="yes" />
      <point x="193" y="102" />
      <point x="162" y="129" />
      <point x="162" y="177" type="curve" smooth="yes" />
      <point x="162" y="183" type="line" />
      <point x="44" y="183" type="line" />
      <point x="44" y="177" type="line" smooth="yes" />
      <point x="44" y="63" />
      <point x="121" y="-7" />
    </contour>
  </outline>
</glyph>
<glyph name="yucyr" format="2">
  <advance width="715" />
  <unicode hex="044E" />
  <guideline x="89" y="410" angle="0" name="horizontal" />
  <guideline x="114" y="0" angle="90" name="h1" />
  <guideline x="0" y="512" angle="0" name="horizontal" />
  <guideline x="419" y="0" angle="90" name="h1" />
  <anchor x="423" y="579" name="top" />
  <outline>
    <component base="dotlessi" xOffset="-5" />
    <component base="o" xOffset="202" />
    <contour>
      <point x="124" y="220" type="line" />
      <point x="325" y="220" type="line" />
      <point x="325" y="327" type="line" />
      <point x="124" y="327" type="line" />
    </contour>
  </outline>
</glyph>
<glyph name="yacyr" format="2">
  <advance width="540" />
  <unicode hex="044F" />
  <guideline x="298" y="0" angle="90" name="h1" />
  <anchor x="298" y="579" name="top" />
  <outline>
    <contour>
      <point x="55" y="0" type="line" />
      <point x="177" y="0" type="line" />
      <point x="246" y="149" type="line" />
      <point x="366" y="149" type="line" />
      <point x="366" y="0" type="line" />
      <point x="487" y="0" type="line" />
      <point x="487" y="512" type="line" />
      <point x="244" y="512" type="line" smooth="yes" />
      <point x="146" y="512" />
      <point x="72" y="438" />
      <point x="72" y="340" type="curve" smooth="yes" />
      <point x="72" y="274" />
      <point x="98" y="223" />
      <point x="145" y="189" type="curve" />
    </contour>
    <contour>
      <point x="193" y="332" type="curve" smooth="yes" />
      <point x="193" y="381" />
      <point x="226" y="405" />
      <point x="271" y="405" type="curve" smooth="yes" />
      <point x="366" y="405" type="line" />
      <point x="366" y="256" type="line" />
      <point x="271" y="256" type="line" smooth="yes" />
      <point x="225" y="256" />
      <point x="193" y="278" />
    </contour>
  </outline>
</glyph>
<glyph name="eukrcyr" format="2">
  <advance width="508" />
  <unicode hex="0454" />
  <outline>
    <contour>
      <point x="258" y="-7" type="curve" smooth="yes" />
      <point x="377" y="-7" />
      <point x="464" y="56" />
      <point x="464" y="177" type="curve" smooth="yes" />
      <point x="464" y="183" type="line" />
      <point x="346" y="183" type="line" />
      <point x="346" y="177" type="line" smooth="yes" />
      <point x="346" y="128" />
      <point x="312" y="102" />
      <point x="260" y="102" type="curve" smooth="yes" />
      <point x="189" y="102" />
      <point x="165" y="147" />
      <point x="165" y="212" type="curve" smooth="yes" />
      <point x="165" y="220" type="line" />
      <point x="281" y="220" type="line" />
      <point x="281" y="327" type="line" />
      <point x="168" y="327" type="line" />
      <point x="168" y="328" type="line" smooth="yes" />
      <point x="168" y="377" />
      <point x="201" y="411" />
      <point x="260" y="411" type="curve" smooth="yes" />
      <point x="314" y="411" />
      <point x="346" y="380" />
      <point x="346" y="329" type="curve" smooth="yes" />
      <point x="346" y="326" type="line" />
      <point x="464" y="326" type="line" />
      <point x="464" y="331" type="line" smooth="yes" />
      <point x="464" y="455" />
      <point x="385" y="519" />
      <point x="258" y="519" type="curve" smooth="yes" />
      <point x="117" y="519" />
      <point x="44" y="439" />
      <point x="44" y="301" type="curve" smooth="yes" />
      <point x="44" y="213" type="line" smooth="yes" />
      <point x="44" y="74" />
      <point x="116" y="-7" />
    </contour>
  </outline>
</glyph>
<glyph name="ljecyr" format="2">
  <advance width="760" />
  <unicode hex="0459" />
  <outline>
    <contour>
      <point x="11" y="0" type="line" />
      <point x="126" y="0" />
      <point x="184" y="51" />
      <point x="194" y="164" type="curve" smooth="yes" />
      <point x="217" y="423" type="line" />
      <point x="343" y="423" type="line" />
      <point x="343" y="0" type="line" />
      <point x="554" y="0" type="line" smooth="yes" />
      <point x="654" y="0" />
      <point x="716" y="62" />
      <point x="716" y="161" type="curve" smooth="yes" />
      <point x="716" y="257" />
      <point x="665" y="327" />
      <point x="549" y="327" type="curve" smooth="yes" />
      <point x="465" y="327" type="line" />
      <point x="465" y="512" type="line" />
      <point x="104" y="512" type="line" />
      <point x="74" y="196" type="line" smooth="yes" />
      <point x="68" y="140" />
      <point x="44" y="108" />
      <point x="11" y="108" type="curve" />
    </contour>
    <contour>
      <point x="465" y="107" type="line" />
      <point x="465" y="220" type="line" />
      <point x="545" y="220" type="line" smooth="yes" />
      <point x="573" y="220" />
      <point x="594" y="197" />
      <point x="594" y="165" type="curve" smooth="yes" />
      <point x="594" y="132" />
      <point x="573" y="107" />
      <point x="545" y="107" type="curve" smooth="yes" />
    </contour>
  </outline>
</glyph>
<glyph name="njecyr" format="2">
  <advance width="771" />
  <unicode hex="045A" />
  <outline>
    <contour>
      <point x="53" y="0" type="line" />
      <point x="174" y="0" type="line" />
      <point x="174" y="220" type="line" />
      <point x="346" y="220" type="line" />
      <point x="346" y="0" type="line" />
      <point x="566" y="0" type="line" smooth="yes" />
      <point x="666" y="0" />
      <point x="727" y="62" />
      <point x="727" y="161" type="curve" smooth="yes" />
      <point x="727" y="257" />
      <point x="676" y="327" />
      <point x="561" y="327" type="curve" smooth="yes" />
      <point x="467" y="327" type="line" />
      <point x="467" y="512" type="line" />
      <point x="346" y="512" type="line" />
      <point x="346" y="327" type="line" />
      <point x="174" y="327" type="line" />
      <point x="174" y="512" type="line" />
      <point x="53" y="512" type="line" />
    </contour>
    <contour>
      <point x="467" y="107" type="line" />
      <point x="467" y="220" type="line" />
      <point x="557" y="220" type="line" smooth="yes" />
      <point x="585" y="220" />
      <point x="606" y="197" />
      <point x="606" y="165" type="curve" smooth="yes" />
      <point x="606" y="132" />
      <point x="585" y="107" />
      <point x="557" y="107" type="curve" smooth="yes" />
    </contour>
  </outline>
</glyph>
<glyph name="dzhecyr" format="2">
  <advance width="520" />
  <unicode hex="045F" />
  <outline>
    <contour>
      <point x="199" y="-164" type="line" />
      <point x="320" y="-164" type="line" />
      <point x="320" y="0" type="line" />
      <point x="467" y="0" type="line" />
      <point x="467" y="512" type="line" />
      <point x="346" y="512" type="line" />
      <point x="346" y="107" type="line" />
      <point x="174" y="107" type="line" />
      <point x="174" y="512" type="line" />
      <point x="53" y="512" type="line" />
      <point x="53" y="0" type="line" />
      <point x="199" y="0" type="line" />
    </contour>
  </outline>
</glyph>
<glyph name="Gheupturncyrillic" format="2">
  <advance width="529" />
  <unicode hex="0490" />
  <outline>
    <component base="Gecyr" />
    <contour>
      <point x="391" y="680" type="line" />
      <point x="500" y="680" type="line" />
      <point x="500" y="834" type="line" />
      <point x="391" y="834" type="line" />
    </contour>
  </outline>
</glyph>
<glyph name="ustraightcyrillic" format="2">
  <advance width="469" />
  <unicode hex="04AF" />
  <outline>
    <contour>
      <point x="170" y="-152" type="line" />
      <point x="299" y="-152" type="line" />
      <point x="299" y="115" type="line" />
      <point x="466" y="513" type="line" />
      <point x="322" y="513" type="line" />
      <point x="234" y="276" type="line" />
      <point x="146" y="513" type="line" />
      <point x="4" y="513" type="line" />
      <point x="170" y="114" type="line" />
    </contour>
  </outline>
</glyph>
<glyph name="quoteleft" format="2">
  <advance width="189" />
  <unicode hex="2018" />
  <outline>
    <contour>
      <point x="38" y="426" type="line" />
      <point x="153" y="426" type="line" />
      <point x="153" y="721" type="line" />
      <point x="38" y="623" type="line" />
    </contour>
  </outline>
</glyph>
<glyph name="quotedblleft" format="2">
  <advance width="380" />
  <unicode hex="201C" />
  <outline>
    <contour>
      <point x="38" y="426" type="line" />
      <point x="153" y="426" type="line" />
      <point x="153" y="721" type="line" />
      <point x="38" y="623" type="line" />
    </contour>
    <contour>
      <point x="227" y="426" type="line" />
      <point x="342" y="426" type="line" />
      <point x="342" y="721" type="line" />
      <point x="227" y="623" type="line" />
    </contour>
  </outline>
</glyph>
<glyph name="daggerdbl" format="2">
  <advance width="547" />
  <unicode hex="2021" />
  <outline>
    <contour>
      <point x="211" y="-154" type="line" />
      <point x="340" y="-154" type="line" />
      <point x="340" y="56" type="line" />
      <point x="494" y="56" type="line" />
      <point x="494" y="169" type="line" />
      <point x="340" y="169" type="line" />
      <point x="340" y="362" type="line" />
      <point x="494" y="362" type="line" />
      <point x="494" y="475" type="line" />
      <point x="340" y="475" type="line" />
      <point x="340" y="680" type="line" />
      <point x="211" y="680" type="line" />
      <point x="211" y="475" type="line" />
      <point x="53" y="475" type="line" />
      <point x="53" y="362" type="line" />
      <point x="211" y="362" type="line" />
      <point x="211" y="169" type="line" />
      <point x="53" y="169" type="line" />
      <point x="53" y="56" type="line" />
      <point x="211" y="56" type="line" />
    </contour>
  </outline>
</glyph>
<glyph name="bullet" format="2">
  <advance width="445" />
  <unicode hex="2022" />
  <outline>
    <contour>
      <point x="223" y="160" type="curve" smooth="yes" />
      <point x="265" y="160" />
      <point x="299" y="173" />
      <point x="326" y="200" type="curve" smooth="yes" />
      <point x="353" y="227" />
      <point x="366" y="261" />
      <point x="366" y="303" type="curve" smooth="yes" />
      <point x="366" y="345" />
      <point x="353" y="380" />
      <point x="326" y="407" type="curve" smooth="yes" />
      <point x="299" y="434" />
      <point x="265" y="447" />
      <point x="223" y="447" type="curve" smooth="yes" />
      <point x="181" y="447" />
      <point x="147" y="434" />
      <point x="120" y="407" type="curve" smooth="yes" />
      <point x="93" y="380" />
      <point x="80" y="345" />
      <point x="80" y="303" type="curve" smooth="yes" />
      <point x="80" y="261" />
      <point x="93" y="227" />
      <point x="120" y="200" type="curve" smooth="yes" />
      <point x="147" y="173" />
      <point x="181" y="160" />
    </contour>
  </outline>
</glyph>
<glyph name="guilsinglright" format="2">
  <advance width="309" />
  <unicode hex="203A" />
  <outline>
    <contour>
      <point x="53" y="37" type="line" />
      <point x="283" y="260" type="line" />
      <point x="53" y="484" type="line" />
      <point x="53" y="356" type="line" />
      <point x="152" y="260" type="line" />
      <point x="53" y="164" type="line" />
    </contour>
  </outline>
</glyph>
<glyph name="fraction" format="2">
  <advance width="206" />
  <unicode hex="2044" />
  <outline>
    <contour>
      <point x="-137" y="-2" type="line" />
      <point x="-38" y="-2" type="line" />
      <point x="343" y="685" type="line" />
      <point x="244" y="685" type="line" />
    </contour>
  </outline>
</glyph>
<glyph name="trademark" format="2">
  <advance width="814" />
  <unicode hex="2122" />
  <outline>
    <contour>
      <point x="138" y="291" type="line" />
      <point x="227" y="291" type="line" />
      <point x="227" y="600" type="line" />
      <point x="336" y="600" type="line" />
      <point x="336" y="680" type="line" />
      <point x="30" y="680" type="line" />
      <point x="30" y="600" type="line" />
      <point x="138" y="600" type="line" />
    </contour>
    <contour>
      <point x="391" y="291" type="line" />
      <point x="474" y="291" type="line" />
      <point x="474" y="497" type="line" />
      <point x="476" y="497" type="line" />
      <point x="543" y="347" type="line" />
      <point x="604" y="347" type="line" />
      <point x="670" y="497" type="line" />
      <point x="673" y="497" type="line" />
      <point x="673" y="291" type="line" />
      <point x="756" y="291" type="line" />
      <point x="756" y="680" type="line" />
      <point x="674" y="680" type="line" />
      <point x="576" y="454" type="line" />
      <point x="573" y="454" type="line" />
      <point x="473" y="680" type="line" />
      <point x="391" y="680" type="line" />
    </contour>
  </outline>
</glyph>
<glyph name="doubleobliquehyphen" format="2">
  <advance width="520" />
  <unicode hex="2E17" />
  <outline>
    <contour>
      <point x="79" y="250" type="line" />
      <point x="479" y="395" type="line" />
      <point x="442" y="499" type="line" />
      <point x="41" y="354" type="line" />
    </contour>
    <contour>
      <point x="79" y="44" type="line" />
      <point x="479" y="189" type="line" />
      <point x="442" y="293" type="line" />
      <point x="41" y="148" type="line" />
    </contour>
  </outline>
</glyph>
<glyph name=".notdef" format="2">
  <advance width="591" />
  <outline>
    <contour>
      <point x="99" y="0" type="line" />
      <point x="491" y="0" type="line" />
      <point x="491" y="680" type="line" />
      <point x="99" y="680" type="line" />
    </contour>
    <contour>
      <point x="133" y="34" type="line" />
      <point x="133" y="646" type="line" />
      <point x="457" y="646" type="line" />
      <point x="457" y="34" type="line" />
    </contour>
  </outline>
</glyph>
<glyph name="a.ss02" format="2">
  <advance width="504" />
  <outline>
    <contour>
      <point x="237" y="-5" type="curve" smooth="yes" />
      <point x="274" y="-5" />
      <point x="309" y="6" />
      <point x="332" y="22" type="curve" />
      <point x="332" y="0" type="line" />
      <point x="450" y="0" type="line" />
      <point x="451" y="508" type="line" />
      <point x="331" y="508" type="line" />
      <point x="331" y="484" type="line" />
      <point x="306" y="502" />
      <point x="268" y="514" />
      <point x="235" y="514" type="curve" smooth="yes" />
      <point x="101" y="513" />
      <point x="43" y="423" />
      <point x="43" y="296" type="curve" smooth="yes" />
      <point x="43" y="214" type="line" smooth="yes" />
      <point x="43" y="88" />
      <point x="105" y="-5" />
    </contour>
    <contour>
      <point x="164" y="214" type="curve" smooth="yes" />
      <point x="164" y="269" type="line" smooth="yes" />
      <point x="164" y="328" />
      <point x="173" y="404" />
      <point x="243" y="404" type="curve" smooth="yes" />
      <point x="307" y="404" />
      <point x="331" y="343" />
      <point x="331" y="288" type="curve" smooth="yes" />
      <point x="331" y="214" type="line" smooth="yes" />
      <point x="331" y="159" />
      <point x="312" y="104" />
      <point x="244" y="104" type="curve" smooth="yes" />
      <point x="185" y="104" />
      <point x="164" y="158" />
    </contour>
  </outline>
</glyph>
<glyph name="caroncmb.alt" format="2">
  <outline>
    <contour>
      <point x="-48" y="463" type="line" />
      <point x="48" y="541" type="line" />
      <point x="48" y="680" type="line" />
      <point x="-48" y="680" type="line" />
    </contour>
  </outline>
</glyph>
<glyph name="elcyr.loclBGR" format="2">
  <advance width="485" />
  <outline>
    <contour>
      <point x="9" y="0" type="line" />
      <point x="139" y="0" type="line" />
      <point x="241" y="329" type="line" />
      <point x="346" y="0" type="line" />
      <point x="476" y="0" type="line" />
      <point x="292" y="512" type="line" />
      <point x="192" y="512" type="line" />
    </contour>
  </outline>
</glyph>
<glyph name="five.dnom" format="2">
  <advance width="319" />
  <outline>
    <contour>
      <point x="159" y="-17" type="curve" smooth="yes" />
      <point x="290" y="-17" />
      <point x="300" y="82" />
      <point x="300" y="114" type="curve" smooth="yes" />
      <point x="300" y="148" type="line" smooth="yes" />
      <point x="300" y="256" />
      <point x="224" y="276" />
      <point x="175" y="276" type="curve" smooth="yes" />
      <point x="156" y="276" />
      <point x="138" y="273" />
      <point x="121" y="265" type="curve" />
      <point x="121" y="327" type="line" />
      <point x="290" y="327" type="line" />
      <point x="290" y="415" type="line" />
      <point x="27" y="415" type="line" />
      <point x="27" y="163" type="line" />
      <point x="117" y="163" type="line" />
      <point x="124" y="176" />
      <point x="132" y="190" />
      <point x="158" y="190" type="curve" smooth="yes" />
      <point x="176" y="190" />
      <point x="197" y="186" />
      <point x="197" y="144" type="curve" smooth="yes" />
      <point x="197" y="115" type="line" smooth="yes" />
      <point x="197" y="69" />
      <point x="170" y="69" />
      <point x="159" y="69" type="curve" smooth="yes" />
      <point x="127" y="69" />
      <point x="120" y="88" />
      <point x="120" y="98" type="curve" smooth="yes" />
      <point x="120" y="113" type="line" />
      <point x="20" y="113" type="line" />
      <point x="20" y="94" type="line" smooth="yes" />
      <point x="20" y="-11" />
      <point x="133" y="-17" />
    </contour>
  </outline>
</glyph>
<glyph name="four.dnom" format="2">
  <advance width="335" />
  <outline>
    <contour>
      <point x="191" y="-11" type="line" />
      <point x="290" y="-11" type="line" />
      <point x="290" y="54" type="line" />
      <point x="326" y="54" type="line" />
      <point x="326" y="142" type="line" />
      <point x="290" y="142" type="line" />
      <point x="290" y="238" type="line" />
      <point x="191" y="238" type="line" />
      <point x="191" y="142" type="line" />
      <point x="123" y="142" type="line" />
      <point x="250" y="415" type="line" />
      <point x="142" y="415" type="line" />
      <point x="11" y="134" type="line" />
      <point x="11" y="54" type="line" />
      <point x="191" y="54" type="line" />
    </contour>
  </outline>
</glyph>
<glyph name="four.tosf" format="2">
  <advance width="512" />
  <outline>
    <contour>
      <point x="312" y="-156" type="line" />
      <point x="441" y="-156" type="line" />
      <point x="441" y="0" type="line" />
      <point x="497" y="0" type="line" />
      <point x="497" y="113" type="line" />
      <point x="441" y="113" type="line" />
      <point x="441" y="254" type="line" />
      <point x="312" y="254" type="line" />
      <point x="312" y="113" type="line" />
      <point x="171" y="113" type="line" />
      <point x="366" y="522" type="line" />
      <point x="237" y="522" type="line" />
      <point x="42" y="113" type="line" />
      <point x="42" y="0" type="line" />
      <point x="312" y="0" type="line" />
    </contour>
  </outline>
</glyph>
<glyph name="gecyr.loclBGR" format="2">
  <advance width="477" />
  <anchor x="233" y="568" name="top" />
  <outline>
    <contour>
      <point x="241" y="-6" type="curve" smooth="yes" />
      <point x="363" y="-6" />
      <point x="441" y="56" />
      <point x="441" y="153" type="curve" smooth="yes" />
      <point x="441" y="157" type="line" />
      <point x="326" y="157" type="line" />
      <point x="326" y="153" type="line" smooth="yes" />
      <point x="326" y="114" />
      <point x="292" y="92" />
      <point x="237" y="92" type="curve" smooth="yes" />
      <point x="180" y="92" />
      <point x="147" y="112" />
      <point x="147" y="150" type="curve" smooth="yes" />
      <point x="147" y="182" />
      <point x="169" y="197" />
      <point x="222" y="205" type="curve" smooth="yes" />
      <point x="280" y="214" type="line" smooth="yes" />
      <point x="385" y="230" />
      <point x="434" y="275" />
      <point x="434" y="360" type="curve" smooth="yes" />
      <point x="434" y="459" />
      <point x="354" y="518" />
      <point x="239" y="518" type="curve" smooth="yes" />
      <point x="118" y="518" />
      <point x="40" y="455" />
      <point x="40" y="368" type="curve" smooth="yes" />
      <point x="40" y="363" type="line" />
      <point x="153" y="363" type="line" />
      <point x="153" y="366" type="line" smooth="yes" />
      <point x="153" y="402" />
      <point x="185" y="422" />
      <point x="239" y="422" type="curve" smooth="yes" />
      <point x="292" y="422" />
      <point x="319" y="402" />
      <point x="319" y="368" type="curve" smooth="yes" />
      <point x="319" y="338" />
      <point x="301" y="321" />
      <point x="253" y="316" type="curve" smooth="yes" />
      <point x="189" y="306" type="line" smooth="yes" />
      <point x="84" y="290" />
      <point x="31" y="243" />
      <point x="31" y="159" type="curve" smooth="yes" />
      <point x="31" y="53" />
      <point x="116" y="-6" />
    </contour>
  </outline>
</glyph>
<glyph name="icyr.loclBGR" format="2">
  <advance width="522" />
  <guideline x="261" y="0" angle="90" name="h1" />
  <anchor x="261" y="579" name="top" />
  <outline>
    <contour>
      <point x="224" y="-7" type="curve" smooth="yes" />
      <point x="279" y="-7" />
      <point x="321" y="15" />
      <point x="349" y="53" type="curve" />
      <point x="352" y="53" type="line" />
      <point x="352" y="0" type="line" />
      <point x="469" y="0" type="line" />
      <point x="469" y="512" type="line" />
      <point x="348" y="512" type="line" />
      <point x="348" y="215" type="line" smooth="yes" />
      <point x="348" y="151" />
      <point x="333" y="102" />
      <point x="261" y="102" type="curve" smooth="yes" />
      <point x="191" y="102" />
      <point x="174" y="152" />
      <point x="174" y="215" type="curve" smooth="yes" />
      <point x="174" y="512" type="line" />
      <point x="53" y="512" type="line" />
      <point x="53" y="209" type="line" smooth="yes" />
      <point x="53" y="71" />
      <point x="108" y="-7" />
    </contour>
  </outline>
</glyph>
<glyph name="nine.dnom" format="2">
  <advance width="331" />
  <outline>
    <contour>
      <point x="66" y="-11" type="line" />
      <point x="180" y="-11" type="line" />
      <point x="286" y="174" type="line" smooth="yes" />
      <point x="310" y="217" />
      <point x="316" y="244" />
      <point x="316" y="273" type="curve" smooth="yes" />
      <point x="316" y="290" type="line" smooth="yes" />
      <point x="316" y="412" />
      <point x="200" y="421" />
      <point x="166" y="421" type="curve" smooth="yes" />
      <point x="75" y="421" />
      <point x="17" y="370" />
      <point x="17" y="288" type="curve" smooth="yes" />
      <point x="17" y="270" type="line" smooth="yes" />
      <point x="17" y="160" />
      <point x="116" y="146" />
      <point x="144" y="146" type="curve" smooth="yes" />
      <point x="147" y="146" />
      <point x="152" y="147" />
      <point x="156" y="147" type="curve" />
    </contour>
    <contour>
      <point x="123" y="275" type="curve" smooth="yes" />
      <point x="123" y="291" type="line" smooth="yes" />
      <point x="123" y="329" />
      <point x="151" y="334" />
      <point x="166" y="334" type="curve" smooth="yes" />
      <point x="201" y="334" />
      <point x="210" y="312" />
      <point x="210" y="291" type="curve" smooth="yes" />
      <point x="210" y="274" type="line" smooth="yes" />
      <point x="210" y="239" />
      <point x="184" y="232" />
      <point x="166" y="232" type="curve" smooth="yes" />
      <point x="128" y="232" />
      <point x="123" y="259" />
    </contour>
  </outline>
</glyph>
<glyph name="one.dnom" format="2">
  <advance width="222" />
  <outline>
    <contour>
      <point x="88" y="-11" type="line" />
      <point x="194" y="-11" type="line" />
      <point x="194" y="415" type="line" />
      <point x="96" y="415" type="line" />
      <point x="12" y="358" type="line" />
      <point x="12" y="249" type="line" />
      <point x="88" y="299" type="line" />
    </contour>
  </outline>
</glyph>
<glyph name="one.osf" format="2">
  <advance width="348" />
  <outline>
    <contour>
      <point x="156" y="0" type="line" />
      <point x="285" y="0" type="line" />
      <point x="285" y="522" type="line" />
      <point x="156" y="522" type="line" />
      <point x="36" y="436" type="line" />
      <point x="36" y="297" type="line" />
      <point x="156" y="381" type="line" />
    </contour>
  </outline>
</glyph>
<glyph name="one.tosf" format="2">
  <advance width="512" />
  <outline>
    <contour>
      <point x="265" y="0" type="line" />
      <point x="392" y="0" type="line" />
      <point x="392" y="526" type="line" />
      <point x="263" y="526" type="line" />
      <point x="84" y="412" type="line" />
      <point x="84" y="273" type="line" />
      <point x="265" y="387" type="line" />
    </contour>
  </outline>
</glyph>
<glyph name="seven.dnom" format="2">
  <advance width="293" />
  <outline>
    <contour>
      <point x="38" y="-11" type="line" />
      <point x="148" y="-11" type="line" />
      <point x="288" y="335" type="line" />
      <point x="288" y="415" type="line" />
      <point x="8" y="415" type="line" />
      <point x="8" y="326" type="line" />
      <point x="177" y="326" type="line" />
    </contour>
  </outline>
</glyph>
<glyph name="seven.tosf" format="2">
  <advance width="512" />
  <outline>
    <contour>
      <point x="118" y="-156" type="line" />
      <point x="248" y="-156" type="line" />
      <point x="462" y="400" type="line" />
      <point x="462" y="513" type="line" />
      <point x="62" y="513" type="line" />
      <point x="62" y="400" type="line" />
      <point x="335" y="400" type="line" />
    </contour>
  </outline>
</glyph>
<glyph name="shacyr.loclBGR" format="2">
  <advance width="813" />
  <outline>
    <contour>
      <point x="231" y="-7" type="curve" smooth="yes" />
      <point x="290" y="-7" />
      <point x="341" y="16" />
      <point x="380" y="59" type="curve" />
      <point x="412" y="14" />
      <point x="460" y="-7" />
      <point x="515" y="-7" type="curve" smooth="yes" />
      <point x="562" y="-7" />
      <point x="609" y="14" />
      <point x="641" y="48" type="curve" />
      <point x="641" y="0" type="line" />
      <point x="760" y="0" type="line" />
      <point x="760" y="512" type="line" />
      <point x="638" y="512" type="line" />
      <point x="638" y="198" type="line" smooth="yes" />
      <point x="638" y="143" />
      <point x="607" y="102" />
      <point x="551" y="102" type="curve" smooth="yes" />
      <point x="494" y="102" />
      <point x="467" y="141" />
      <point x="467" y="196" type="curve" smooth="yes" />
      <point x="467" y="512" type="line" />
      <point x="345" y="512" type="line" />
      <point x="345" y="195" type="line" smooth="yes" />
      <point x="345" y="140" />
      <point x="314" y="102" />
      <point x="259" y="102" type="curve" smooth="yes" />
      <point x="202" y="102" />
      <point x="175" y="141" />
      <point x="175" y="197" type="curve" smooth="yes" />
      <point x="175" y="512" type="line" />
      <point x="53" y="512" type="line" />
      <point x="53" y="181" type="line" smooth="yes" />
      <point x="53" y="69" />
      <point x="116" y="-7" />
    </contour>
  </outline>
</glyph>
<glyph name="shchacyr.loclBGR" format="2">
  <advance width="841" />
  <outline>
    <component base="shacyr.loclBGR" />
    <contour>
      <point x="720" y="-164" type="line" />
      <point x="841" y="-164" type="line" />
      <point x="841" y="107" type="line" />
      <point x="720" y="107" type="line" />
    </contour>
  </outline>
</glyph>
<glyph name="softcyr.loclBGR" format="2">
  <advance width="528" />
  <outline>
    <contour>
      <point x="264" y="101" type="curve" smooth="yes" />
      <point x="314" y="101" />
      <point x="354" y="146" />
      <point x="354" y="197" type="curve" smooth="yes" />
      <point x="354" y="252" />
      <point x="323" y="286" />
      <point x="274" y="286" type="curve" smooth="yes" />
      <point x="238" y="286" />
      <point x="207" y="285" />
      <point x="174" y="258" type="curve" />
      <point x="174" y="195" type="line" />
      <point x="174" y="130" />
      <point x="214" y="101" />
    </contour>
    <contour>
      <point x="53" y="195" type="curve" />
      <point x="53" y="512" type="line" />
      <point x="174" y="512" type="line" />
      <point x="174" y="381" type="line" />
      <point x="206" y="389" />
      <point x="237" y="392" />
      <point x="275" y="392" type="curve" smooth="yes" />
      <point x="394" y="392" />
      <point x="475" y="311" />
      <point x="475" y="189" type="curve" smooth="yes" />
      <point x="475" y="71" />
      <point x="394" y="-7" />
      <point x="264" y="-7" type="curve" smooth="yes" />
      <point x="139" y="-7" />
      <point x="53" y="73" />
    </contour>
  </outline>
</glyph>
<glyph name="t_t" format="2">
  <advance width="666" />
  <outline>
    <contour>
      <point x="253" y="0" type="curve" smooth="yes" />
      <point x="312" y="0" type="line" />
      <point x="312" y="104" type="line" />
      <point x="273" y="104" type="line" smooth="yes" />
      <point x="238" y="104" />
      <point x="220" y="121" />
      <point x="220" y="158" type="curve" smooth="yes" />
      <point x="220" y="426" type="line" />
      <point x="412" y="426" type="line" />
      <point x="412" y="150" type="line" smooth="yes" />
      <point x="412" y="57" />
      <point x="471" y="0" />
      <point x="566" y="0" type="curve" smooth="yes" />
      <point x="625" y="0" type="line" />
      <point x="625" y="104" type="line" />
      <point x="586" y="104" type="line" smooth="yes" />
      <point x="549" y="104" />
      <point x="533" y="121" />
      <point x="533" y="158" type="curve" smooth="yes" />
      <point x="533" y="426" type="line" />
      <point x="635" y="426" type="line" />
      <point x="635" y="512" type="line" />
      <point x="533" y="512" type="line" />
      <point x="533" y="655" type="line" />
      <point x="412" y="613" type="line" />
      <point x="412" y="512" type="line" />
      <point x="220" y="512" type="line" />
      <point x="220" y="655" type="line" />
      <point x="99" y="613" type="line" />
      <point x="99" y="512" type="line" />
      <point x="25" y="512" type="line" />
      <point x="25" y="426" type="line" />
      <point x="99" y="426" type="line" />
      <point x="99" y="150" type="line" smooth="yes" />
      <point x="99" y="57" />
      <point x="159" y="0" />
    </contour>
  </outline>
</glyph>
<glyph name="three.tosf" format="2">
  <advance width="512" />
  <outline>
    <contour>
      <point x="258" y="-161" type="curve" smooth="yes" />
      <point x="377" y="-161" />
      <point x="465" y="-88" />
      <point x="465" y="30" type="curve" smooth="yes" />
      <point x="465" y="47" type="line" smooth="yes" />
      <point x="465" y="124" />
      <point x="433" y="176" />
      <point x="371" y="201" type="curve" />
      <point x="426" y="228" />
      <point x="454" y="275" />
      <point x="454" y="333" type="curve" smooth="yes" />
      <point x="454" y="346" type="line" smooth="yes" />
      <point x="454" y="454" />
      <point x="379" y="519" />
      <point x="257" y="519" type="curve" smooth="yes" />
      <point x="132" y="519" />
      <point x="57" y="455" />
      <point x="57" y="342" type="curve" smooth="yes" />
      <point x="57" y="329" type="line" />
      <point x="175" y="329" type="line" />
      <point x="175" y="342" type="line" smooth="yes" />
      <point x="175" y="387" />
      <point x="202" y="414" />
      <point x="252" y="414" type="curve" smooth="yes" />
      <point x="300" y="414" />
      <point x="329" y="384" />
      <point x="329" y="337" type="curve" smooth="yes" />
      <point x="329" y="322" type="line" smooth="yes" />
      <point x="329" y="272" />
      <point x="298" y="242" />
      <point x="245" y="242" type="curve" smooth="yes" />
      <point x="211" y="242" type="line" />
      <point x="211" y="137" type="line" />
      <point x="246" y="137" type="line" smooth="yes" />
      <point x="309" y="137" />
      <point x="340" y="106" />
      <point x="340" y="46" type="curve" smooth="yes" />
      <point x="340" y="30" type="line" smooth="yes" />
      <point x="340" y="-22" />
      <point x="308" y="-57" />
      <point x="256" y="-57" type="curve" smooth="yes" />
      <point x="202" y="-57" />
      <point x="172" y="-33" />
      <point x="172" y="14" type="curve" smooth="yes" />
      <point x="172" y="29" type="line" />
      <point x="52" y="29" type="line" />
      <point x="52" y="10" type="line" smooth="yes" />
      <point x="52" y="-99" />
      <point x="127" y="-161" />
    </contour>
  </outline>
</glyph>
<glyph name="tsecyr.loclBGR" format="2">
  <advance width="538" />
  <outline>
    <component base="icyr.loclBGR" />
    <contour>
      <point x="417" y="-164" type="line" />
      <point x="538" y="-164" type="line" />
      <point x="538" y="107" type="line" />
      <point x="417" y="107" type="line" />
    </contour>
  </outline>
</glyph>
<glyph name="two.dnom" format="2">
  <advance width="316" />
  <outline>
    <contour>
      <point x="19" y="-11" type="line" />
      <point x="301" y="-11" type="line" />
      <point x="301" y="78" type="line" />
      <point x="161" y="78" type="line" />
      <point x="256" y="188" type="line" smooth="yes" />
      <point x="297" y="235" />
      <point x="301" y="270" />
      <point x="301" y="291" type="curve" smooth="yes" />
      <point x="301" y="301" type="line" smooth="yes" />
      <point x="301" y="373" />
      <point x="241" y="421" />
      <point x="160" y="421" type="curve" smooth="yes" />
      <point x="69" y="421" />
      <point x="17" y="366" />
      <point x="17" y="301" type="curve" smooth="yes" />
      <point x="17" y="276" type="line" />
      <point x="120" y="276" type="line" />
      <point x="120" y="296" type="line" smooth="yes" />
      <point x="120" y="328" />
      <point x="142" y="334" />
      <point x="157" y="334" type="curve" smooth="yes" />
      <point x="189" y="334" />
      <point x="194" y="313" />
      <point x="194" y="298" type="curve" smooth="yes" />
      <point x="194" y="290" type="line" smooth="yes" />
      <point x="194" y="275" />
      <point x="188" y="260" />
      <point x="170" y="240" type="curve" smooth="yes" />
      <point x="19" y="64" type="line" />
    </contour>
  </outline>
</glyph>
<glyph name="zero.tosf" format="2">
  <advance width="512" />
  <outline>
    <contour>
      <point x="258" y="-10" type="curve" smooth="yes" />
      <point x="396" y="-10" />
      <point x="466" y="63" />
      <point x="466" y="210" type="curve" smooth="yes" />
      <point x="466" y="308" type="line" smooth="yes" />
      <point x="466" y="450" />
      <point x="396" y="522" />
      <point x="258" y="522" type="curve" smooth="yes" />
      <point x="119" y="522" />
      <point x="50" y="450" />
      <point x="50" y="308" type="curve" smooth="yes" />
      <point x="50" y="210" type="line" smooth="yes" />
      <point x="50" y="63" />
      <point x="119" y="-10" />
    </contour>
    <contour>
      <point x="178" y="229" type="curve" smooth="yes" />
      <point x="178" y="283" type="line" smooth="yes" />
      <point x="178" y="367" />
      <point x="199" y="401" />
      <point x="258" y="401" type="curve" smooth="yes" />
      <point x="316" y="401" />
      <point x="337" y="367" />
      <point x="337" y="283" type="curve" smooth="yes" />
      <point x="337" y="229" type="line" smooth="yes" />
      <point x="337" y="144" />
      <point x="316" y="111" />
      <point x="258" y="111" type="curve" smooth="yes" />
      <point x="199" y="111" />
      <point x="178" y="144" />
    </contour>
  </outline>
</glyph>
<glyph name="zhecyr.loclBGR" format="2">
  <advance width="808" />
  <guideline x="114" y="0" angle="90" name="vertical" />
  <guideline x="0" y="680" angle="0" name="horizontal" />
  <guideline x="626" y="0" angle="90" name="vertical" />
  <guideline x="0" y="680" angle="0" name="horizontal" />
  <anchor x="626" y="680" name="top" />
  <outline>
    <contour>
      <point x="9" y="0" type="line" />
      <point x="157" y="0" type="line" />
      <point x="279" y="215" type="line" />
      <point x="343" y="215" type="line" />
      <point x="343" y="0" type="line" />
      <point x="466" y="0" type="line" />
      <point x="466" y="215" type="line" />
      <point x="529" y="215" type="line" />
      <point x="651" y="0" type="line" />
      <point x="799" y="0" type="line" />
      <point x="622" y="307" type="line" />
      <point x="777" y="512" type="line" />
      <point x="630" y="512" type="line" />
      <point x="494" y="321" type="line" />
      <point x="466" y="321" type="line" />
      <point x="466" y="680" type="line" />
      <point x="343" y="680" type="line" />
      <point x="343" y="321" type="line" />
      <point x="315" y="321" type="line" />
      <point x="178" y="512" type="line" />
      <point x="31" y="512" type="line" />
      <point x="186" y="307" type="line" />
    </contour>
  </outline>
</glyph>
